<?xml version="1.0" encoding="UTF-8" standalone="no"?>
<!-- Created with Inkscape (http://www.inkscape.org/) -->

<svg
   xmlns:dc="http://purl.org/dc/elements/1.1/"
   xmlns:cc="http://creativecommons.org/ns#"
   xmlns:rdf="http://www.w3.org/1999/02/22-rdf-syntax-ns#"
   xmlns:svg="http://www.w3.org/2000/svg"
   xmlns="http://www.w3.org/2000/svg"
   xmlns:sodipodi="http://sodipodi.sourceforge.net/DTD/sodipodi-0.dtd"
   xmlns:inkscape="http://www.inkscape.org/namespaces/inkscape"
   width="310.41214"
   height="200"
   id="svg5231"
   version="1.1"
   inkscape:version="0.48.3.1 r9886"
   sodipodi:docname="jubilee crown red.svg"
   inkscape:export-filename="C:\Users\jparagreen\SkyDrive\Jubilee invites\jubilee crown red.png"
   inkscape:export-xdpi="300"
   inkscape:export-ydpi="300">
  <defs
     id="defs5233" />
  <sodipodi:namedview
     id="base"
     pagecolor="#ffffff"
     bordercolor="#666666"
     borderopacity="1.0"
     inkscape:pageopacity="0.0"
     inkscape:pageshadow="2"
     inkscape:zoom="0.35"
     inkscape:cx="258.7775"
     inkscape:cy="74.285717"
     inkscape:document-units="px"
     inkscape:current-layer="layer1"
     showgrid="false"
     fit-margin-top="0"
     fit-margin-left="0"
     fit-margin-right="0"
     fit-margin-bottom="0"
     inkscape:window-width="451"
     inkscape:window-height="398"
     inkscape:window-x="1541"
     inkscape:window-y="175"
     inkscape:window-maximized="0" />
  <metadata
     id="metadata5236">
    <rdf:RDF>
      <cc:Work
         rdf:about="">
        <dc:format>image/svg+xml</dc:format>
        <dc:type
           rdf:resource="http://purl.org/dc/dcmitype/StillImage" />
        <dc:title></dc:title>
      </cc:Work>
    </rdf:RDF>
  </metadata>
  <g
     inkscape:label="Layer 1"
     inkscape:groupmode="layer"
     id="layer1"
     transform="translate(-116.2225,-406.6479)">
    <path
       d="m 261.68323,406.6479 0,2.13534 7.2957,9.07047 0,3.48709 -11.71567,-5.62247 -2.21004,0 0,14.77125 2.21004,0 11.71567,-4.95639 0,8.42394 c -8.08403,0.871 -14.29849,5.99537 -14.29849,12.18534 0,6.80085 7.47811,12.32244 16.72147,12.32244 9.24347,0 16.74813,-5.52159 16.74813,-12.32244 0,-5.99129 -5.81984,-10.96627 -13.52627,-12.06782 l 0,-7.95374 11.6624,4.93681 2.07689,0 0,-13.98765 -2.07689,0 -11.6624,5.58333 0,-4.79969 7.29565,-9.07047 0,-2.13534 -20.23619,0 z m 7.2957,30.38493 0,7.34648 c -3.1893,-0.40948 -6.09884,-1.41074 -8.54714,-2.82106 1.79069,-2.31396 4.88016,-4.00143 8.54714,-4.52542 z m 5.64484,0.13724 c 3.67559,0.71448 6.69542,2.61409 8.2542,5.11314 -2.42028,1.16265 -5.24037,1.91299 -8.2542,2.17454 l 0,-7.28768 z m -34.56126,11.46045 c -4.20153,0 -7.61518,2.51161 -7.61518,5.60291 0,3.0913 3.41365,5.5833 7.61518,5.5833 4.20154,0 7.61522,-2.492 7.61522,-5.5833 0,-3.0913 -3.41368,-5.60291 -7.61522,-5.60291 z m 62.70548,0 c -4.20151,0 -7.61516,2.51161 -7.61516,5.60291 0,3.0913 3.41365,5.5833 7.61516,5.5833 4.20156,0 7.61516,-2.492 7.61516,-5.5833 0,-3.0913 -3.4136,-5.60291 -7.61516,-5.60291 z m -34.40147,1.31258 c 4.42177,0 8.48446,1.099 11.74227,2.9386 -2.26477,1.58401 -5.33534,2.54675 -8.70688,2.54675 -4.49627,0 -8.4396,-1.72598 -10.67723,-4.32951 2.3417,-0.74166 4.93163,-1.15584 7.64184,-1.15584 z m -48.38041,2.48802 c -3.86542,0 -7.00282,2.30828 -7.00282,5.15228 0,2.844 3.1374,5.15235 7.00282,5.15235 3.86541,0 7.00277,-2.30835 7.00277,-5.15235 0,-2.844 -3.13736,-5.15228 -7.00277,-5.15228 z m 102.85834,0 c -3.8654,0 -7.0028,2.30828 -7.0028,5.15228 0,2.844 3.1374,5.15235 7.0028,5.15235 3.8654,0 7.0027,-2.30835 7.0027,-5.15235 0,-2.844 -3.1373,-5.15228 -7.0027,-5.15228 z m -121.12417,6.3865 c -3.44522,0 -6.23055,2.0493 -6.23055,4.58418 0,2.53488 2.78533,4.60378 6.23055,4.60378 3.44531,0 6.23067,-2.0689 6.23067,-4.60378 0,-2.53488 -2.78536,-4.58418 -6.23067,-4.58418 z m 139.38997,0 c -3.4453,0 -6.2306,2.0493 -6.2306,4.58418 0,2.53488 2.7853,4.60378 6.2306,4.60378 3.4453,0 6.2306,-2.0689 6.2306,-4.60378 0,-2.53488 -2.7853,-4.58418 -6.2306,-4.58418 z m -91.16929,1.80233 -2.82242,0.31345 c -23.8896,2.6464 -46.30193,9.56213 -64.11673,16.84787 -17.81474,7.2858 -30.88177,14.80929 -36.63813,19.37506 l 5.43187,3.7026 c 4.63293,-3.67469 17.58456,-11.26524 34.8275,-18.31717 16.51715,-6.75504 37.12591,-13.09494 58.76479,-15.82916 3.16806,5.22147 6.17219,10.04052 9.2926,21.84346 l 7.26908,0 C 258.344,474.91818 254.55221,468.39868 251.05928,462.5398 l -1.11832,-1.91985 z m 42.94863,0 -1.11831,1.91985 c -3.49296,5.85888 -7.28472,12.37838 -10.89034,26.01626 l 7.2691,0 c 3.12042,-11.80294 6.12459,-16.62199 9.29267,-21.84346 21.63884,2.73422 42.24764,9.07412 58.76474,15.82916 17.2429,7.05193 30.1945,14.64248 34.8275,18.31717 l 5.4318,-3.7026 c -5.7563,-4.56577 -18.8234,-12.08926 -36.6381,-19.37506 -17.8147,-7.28574 -40.2271,-14.20147 -64.11669,-16.84787 l -2.82237,-0.31345 z m -21.48768,0.37225 c -3.52926,0 -6.39036,2.10499 -6.39036,4.7017 0,2.5967 2.8611,4.70172 6.39036,4.70172 3.52936,0 6.39038,-2.10502 6.39038,-4.70172 0,-2.59671 -2.86102,-4.7017 -6.39038,-4.7017 z m -85.81727,3.76137 c -3.19321,0 -5.77798,1.90175 -5.77798,4.25113 0,2.34941 2.58477,4.25117 5.77798,4.25117 3.19316,0 5.8046,-1.90176 5.8046,-4.25117 0,-2.34938 -2.61144,-4.25113 -5.8046,-4.25113 z m 171.66131,0 c -3.1933,0 -5.8046,1.90175 -5.8046,4.25113 0,2.34941 2.6113,4.25117 5.8046,4.25117 3.1931,0 5.778,-1.90176 5.778,-4.25117 0,-2.34938 -2.5849,-4.25113 -5.778,-4.25113 z m -188.08988,7.60113 c -3.02512,0 -5.45847,1.8099 -5.45847,4.03563 0,2.22574 2.43335,4.03568 5.45847,4.03568 3.02512,0 5.48506,-1.80994 5.48506,-4.03568 0,-2.22573 -2.45994,-4.03563 -5.48506,-4.03563 z m 204.51838,0 c -3.0251,0 -5.4851,1.8099 -5.4851,4.03563 0,2.22574 2.46,4.03568 5.4851,4.03568 3.0252,0 5.4585,-1.80994 5.4585,-4.03568 0,-2.22573 -2.4333,-4.03563 -5.4585,-4.03563 z m -102.27254,0.62688 c -3.02508,0 -5.4584,1.80994 -5.4584,4.03565 0,2.22575 2.43332,4.01607 5.4584,4.01607 3.02512,0 5.48511,-1.79032 5.48511,-4.01607 0,-2.22571 -2.45999,-4.03565 -5.48511,-4.03565 z m -116.83719,7.44443 c -2.68901,0 -4.87268,1.60666 -4.87268,3.58507 0,1.97843 2.18367,3.58507 4.87268,3.58507 2.68899,0 4.87266,-1.60664 4.87266,-3.58507 0,-1.97841 -2.18367,-3.58507 -4.87266,-3.58507 z m 233.70103,0 c -2.689,0 -4.8726,1.60666 -4.8726,3.58507 0,1.97843 2.1836,3.58507 4.8726,3.58507 2.689,0 4.8727,-1.60664 4.8727,-3.58507 0,-1.97841 -2.1837,-3.58507 -4.8727,-3.58507 z m -195.97117,0.90116 c -7.03921,8.03676 -6.74805,18.38138 -2.44972,29.99312 -32.69514,-10.23774 -43.94972,20.61488 -19.1711,29.99314 -1.89347,-7.48796 -0.0792,-15.47681 10.97012,-16.3385 5.90962,-0.46088 12.85134,0.76902 13.68604,8.73739 0.58725,5.60551 -5.86974,18.98958 -26.17385,18.80692 -12.68755,-0.11569 -26.23549,-3.61212 -32.24475,-18.57186 -2.24009,-5.57641 -2.20173,-5.30431 5.24545,-3.03653 2.91455,0.88752 6.60737,2.72934 12.70082,6.60202 -0.43122,-6.2642 -4.54907,-22.16067 -8.81336,-26.85865 -5.69428,2.96191 -6.30208,6.45255 -17.04102,8.7178 3.81578,-5.43375 7.35537,-10.97867 12.78077,-17.0046 -11.30309,0.62045 -18.10293,2.61438 -25.56148,3.80056 1.7491,5.337 3.52581,10.60557 6.07084,14.77127 -5.59627,7.98237 -0.91326,11.5706 4.87269,15.45696 2.35615,1.5826 12.99449,24.61061 7.61513,32.46156 -2.83602,4.13908 -1.17783,8.56507 2.74257,10.52012 4.38577,2.18708 8.32595,4.99723 11.90208,7.89498 4.57944,3.71076 3.51425,4.09405 9.1329,1.82191 19.77948,-7.99869 62.90492,-13.49786 112.86986,-13.49786 49.96498,0 93.09038,5.49917 112.86988,13.49786 5.6186,2.27214 4.5534,1.88885 9.1329,-1.82191 3.5761,-2.89775 7.5163,-5.7079 11.9021,-7.89498 3.9204,-1.95505 5.5786,-6.38104 2.7425,-10.52012 -5.3793,-7.85095 5.259,-30.87896 7.6152,-32.46156 5.7859,-3.88636 10.4689,-7.47459 4.8727,-15.45696 2.545,-4.1657 4.3217,-9.43427 6.0708,-14.77127 -7.4585,-1.18618 -14.2584,-3.18011 -25.5615,-3.80056 5.4254,6.02593 8.965,11.57085 12.7808,17.0046 -10.739,-2.26525 -11.3467,-5.75589 -17.041,-8.7178 -4.2643,4.69798 -8.3822,20.59445 -8.8134,26.85865 6.0935,-3.87268 9.7863,-5.7145 12.7008,-6.60202 7.4472,-2.26778 7.4855,-2.53988 5.2455,3.03653 -6.0093,14.95974 -19.5572,18.45592 -32.2448,18.57186 -20.304,0.18271 -26.7611,-13.20141 -26.1739,-18.80692 0.8348,-7.96837 7.7765,-9.19827 13.6861,-8.73739 11.0496,0.86169 12.8636,8.85054 10.9701,16.3385 24.7787,-9.37826 13.5241,-40.23088 -19.171,-29.99314 4.2983,-11.61174 4.5894,-21.95636 -2.4497,-29.99312 -8.5102,6.29252 -18.4836,11.62214 -15.2038,28.64138 -6.1562,-3.24873 -11.5145,-6.51935 -17.0409,-5.5833 -7.4508,1.26202 -14.23127,3.48795 -15.52331,12.08737 -0.90214,6.00463 3.7914,11.73075 10.03821,15.43735 0.8328,-5.89232 2.3138,-11.02881 11.263,-11.1862 10.276,-0.18069 12.1842,6.06356 11.8754,10.9707 -0.4275,6.79522 -12.9216,14.76832 -28.9164,13.8897 -16.03244,-0.88067 -29.92768,-10.93493 -29.68856,-23.11683 5.07537,0.89591 11.46132,4.77764 14.40499,6.64118 0.56686,0.35891 2.54712,0.33206 3.11525,0.35264 l 0,-25.46773 c -0.74448,0.0126 -2.27228,-0.14453 -3.16853,0.25467 -4.59864,2.04758 -10.06391,8.548 -13.26006,7.97337 2.48303,-7.4662 9.26544,-16.4449 9.42582,-19.49262 l -32.91037,0 c 0.15992,3.04772 6.94279,12.02642 9.42582,19.49262 -3.19615,0.57463 -8.66142,-5.92579 -13.26006,-7.97337 -0.89625,-0.39907 -2.42405,-0.24248 -3.16853,-0.25467 l 0,25.46773 c 0.56813,-0.0205 2.54841,0.005 3.11525,-0.35264 2.94367,-1.86354 9.32964,-5.74527 14.40499,-6.64118 0.23898,12.1819 -13.65605,22.23616 -29.68857,23.11683 -15.99476,0.87862 -28.48888,-7.09448 -28.91644,-13.8897 -0.30886,-4.90714 1.5994,-11.15144 11.87545,-10.9707 8.94914,0.15739 10.43024,5.29388 11.263,11.1862 6.24681,-3.7066 10.94038,-9.43272 10.03821,-15.43735 -1.29198,-8.59942 -8.07247,-10.82535 -15.52327,-12.08737 -5.5264,-0.93605 -10.88476,2.33457 -17.04098,5.5833 3.27989,-17.01924 -6.69357,-22.34886 -15.20368,-28.64138 z m 79.10733,2.29208 c -2.18474,0 -3.94068,1.29193 -3.94068,2.8994 0,1.6075 1.75594,2.919 3.94068,2.919 2.18481,0 3.96738,-1.3115 3.96738,-2.919 0,-1.60747 -1.78257,-2.8994 -3.96738,-2.8994 z m -128.71259,5.30903 c -2.18486,0 -3.9674,1.31152 -3.9674,2.91901 0,1.60748 1.78254,2.89939 3.9674,2.89939 2.18477,0 3.96726,-1.29191 3.96726,-2.89939 0,-1.60749 -1.78249,-2.91901 -3.96726,-2.91901 z m 257.45193,0 c -2.1848,0 -3.9674,1.31152 -3.9674,2.91901 0,1.60748 1.7826,2.89939 3.9674,2.89939 2.1848,0 3.9673,-1.29191 3.9673,-2.89939 0,-1.60749 -1.7825,-2.91901 -3.9673,-2.91901 z m -128.73934,25.35019 c 1.84874,0 3.35501,1.10825 3.35501,2.4684 0,1.36017 -1.50627,2.46841 -3.35501,2.46841 -1.84864,0 -3.32827,-1.10824 -3.32827,-2.46841 0,-1.36015 1.47963,-2.4684 3.32827,-2.4684 z m -145.94002,9.63856 c 1.34955,-0.0204 2.97792,1.59876 3.75431,3.78096 0.8283,2.3277 0.35558,4.42339 -1.03836,4.68215 -1.39403,0.25876 -3.1924,-1.41409 -4.02066,-3.74177 -0.82821,-2.3277 -0.3555,-4.4234 1.03845,-4.68215 0.0872,-0.0163 0.17655,-0.0377 0.26624,-0.0392 z m 291.93336,0 c 0.09,8.9e-4 0.1791,0.0231 0.2662,0.0392 1.394,0.25875 1.8667,2.35445 1.0385,4.68213 -0.8282,2.32769 -2.6266,4.00056 -4.0206,3.74181 -1.394,-0.25875 -1.8667,-2.35447 -1.0384,-4.68215 0.7764,-2.1822 2.4047,-3.80139 3.7543,-3.78097 z m -145.99334,24.29227 7.85487,9.22717 -7.85487,9.24673 -7.85478,-9.24673 7.85478,-9.22717 z m -32.56421,3.19327 c 2.18481,0 3.96735,1.29193 3.96735,2.89943 0,1.60745 -1.78254,2.91897 -3.96735,2.91897 -2.18476,0 -3.94076,-1.31152 -3.94076,-2.91897 0,-1.6075 1.756,-2.89943 3.94076,-2.89943 z m 65.18175,0 c 2.1848,0 3.9408,1.29193 3.9408,2.89943 0,1.60745 -1.756,2.91897 -3.9408,2.91897 -2.18481,0 -3.96735,-1.31152 -3.96735,-2.91897 0,-1.6075 1.78254,-2.89943 3.96735,-2.89943 z m -95.24307,0.6073 c 8.09245,0.11695 14.70097,3.26435 15.46997,7.7187 0.87885,5.09066 -6.21456,9.95334 -15.84274,10.85315 -9.62829,0.89982 -18.13253,-2.51047 -19.01138,-7.60112 -0.87886,-5.0907 6.21458,-9.93379 15.84281,-10.83358 1.20348,-0.11247 2.38522,-0.15373 3.54134,-0.13724 z m 125.30447,0 c 1.156,-0.0164 2.3377,0.0248 3.5413,0.13723 9.6282,0.89982 16.7216,5.74293 15.8428,10.83355 -0.8789,5.09071 -9.3831,8.50097 -19.0114,7.60117 -9.6282,-0.8998 -16.7216,-5.76249 -15.8428,-10.85317 0.769,-4.45432 7.3776,-7.6016 15.4701,-7.71865 z m -164.76499,8.22803 c 2.18473,0 3.96727,1.31152 3.96727,2.919 0,1.60748 -1.78254,2.8994 -3.96727,2.8994 -2.18484,0 -3.96738,-1.29192 -3.96738,-2.8994 0,-1.60748 1.78254,-2.919 3.96738,-2.919 z m 204.22539,0 c 2.1849,0 3.9675,1.31152 3.9675,2.919 0,1.60748 -1.7826,2.8994 -3.9675,2.8994 -2.1847,0 -3.9672,-1.29192 -3.9672,-2.8994 0,-1.60748 1.7825,-2.919 3.9672,-2.919 z m -132.57342,3.25205 c 2.18483,0 3.96735,1.29192 3.96735,2.89939 0,1.60748 -1.78252,2.91901 -3.96735,2.91901 -2.18483,0 -3.94071,-1.31153 -3.94071,-2.91901 0,-1.60747 1.75588,-2.89939 3.94071,-2.89939 z m 60.92149,0 c 2.18483,0 3.94073,1.29192 3.94073,2.89939 0,1.60748 -1.7559,2.91901 -3.94073,2.91901 -2.18483,0 -3.96735,-1.31153 -3.96735,-2.91901 0,-1.60747 1.78252,-2.89939 3.96735,-2.89939 z m -159.43966,2.97774 8.44057,5.05436 -2.44962,7.81665 -8.46724,-5.07395 2.47629,-7.79706 z m 257.95779,0 2.4763,7.79706 -8.4672,5.07395 -2.4496,-7.81665 8.4405,-5.05436 z m -228.18936,5.52456 c 2.18481,0 3.94076,1.31152 3.94076,2.91898 0,1.60749 -1.75595,2.89939 -3.94076,2.89939 -2.18474,0 -3.96736,-1.2919 -3.96736,-2.89939 0,-1.60746 1.78262,-2.91898 3.96736,-2.91898 z m 198.42096,0 c 2.1848,0 3.9674,1.31152 3.9674,2.91898 0,1.60749 -1.7826,2.89939 -3.9674,2.89939 -2.1848,0 -3.9408,-1.2919 -3.9408,-2.89939 0,-1.60746 1.756,-2.91898 3.9408,-2.91898 z m -99.21048,7.01339 c -61.67878,0 -111.67165,9.28429 -111.67165,14.5558 0,4.82414 49.99287,13.08646 111.67165,13.08646 61.67878,0 111.67168,-8.26232 111.67168,-13.08646 0,-5.27151 -49.9929,-14.5558 -111.67168,-14.5558 z"
       id="imagebot_4-9"
       inkscape:connector-curvature="0"
       style="fill:#f10002;fill-opacity:1" />
  </g>
</svg>
