<?xml version="1.0" encoding="UTF-8" standalone="no"?>
<!-- Created with Inkscape (http://www.inkscape.org/) -->

<svg
   xmlns:dc="http://purl.org/dc/elements/1.1/"
   xmlns:cc="http://creativecommons.org/ns#"
   xmlns:rdf="http://www.w3.org/1999/02/22-rdf-syntax-ns#"
   xmlns:svg="http://www.w3.org/2000/svg"
   xmlns="http://www.w3.org/2000/svg"
   xmlns:xlink="http://www.w3.org/1999/xlink"
   xmlns:sodipodi="http://sodipodi.sourceforge.net/DTD/sodipodi-0.dtd"
   xmlns:inkscape="http://www.inkscape.org/namespaces/inkscape"
   width="454.90988"
   height="354.33072"
   id="svg1876"
   sodipodi:version="0.32"
   inkscape:version="0.48.2 r9819"
   version="1.0"
   sodipodi:docname="lalolalo_Smiling_pig_color.svg">
  <defs
     id="defs1878" />
  <sodipodi:namedview
     id="base"
     pagecolor="#ffffff"
     bordercolor="#666666"
     borderopacity="1.0"
     gridtolerance="10000"
     guidetolerance="10"
     objecttolerance="10"
     inkscape:pageopacity="0.0"
     inkscape:pageshadow="2"
     inkscape:zoom="5.6568544"
     inkscape:cx="132.50219"
     inkscape:cy="277.19317"
     inkscape:document-units="px"
     inkscape:current-layer="layer1"
     width="209.99874mm"
     height="297mm"
     units="mm"
     inkscape:window-width="1280"
     inkscape:window-height="1024"
     inkscape:window-x="0"
     inkscape:window-y="0"
     showgrid="false"
     inkscape:window-maximized="0" />
  <metadata
     id="metadata1881">
    <rdf:RDF>
      <cc:Work
         rdf:about="">
        <dc:format>image/svg+xml</dc:format>
        <dc:type
           rdf:resource="http://purl.org/dc/dcmitype/StillImage" />
      </cc:Work>
    </rdf:RDF>
  </metadata>
  <g
     inkscape:label="Layer 1"
     inkscape:groupmode="layer"
     id="layer1"
     transform="translate(-98.0621,-56.70425)">
    <path
       id="path2159"
       d="M 390.51551,408.68793 C 389.98384,407.46735 389.17911,406.19751 388.7273,405.86608 C 388.27534,405.53464 385.98385,400.98682 383.63487,395.75979 C 381.28589,390.53277 377.91344,383.99975 376.14047,381.24201 C 374.36752,378.48427 369.25923,365.61641 364.7889,352.64672 L 356.66086,329.06554 L 342.24482,329.85072 C 332.39535,330.38717 325.5845,330.06638 320.74467,328.83808 C 316.84848,327.8493 313.16611,327.38714 312.56144,327.81111 C 311.95676,328.23507 308.79092,333.33035 305.52628,339.13395 C 301.76275,345.82435 295.81361,353.53704 289.27002,360.2092 C 283.59374,365.99697 277.74972,373.25745 276.28324,376.34356 C 274.81678,379.42968 271.92281,382.93225 269.85221,384.12703 C 266.28153,386.18728 256.86436,393.68132 255.57548,395.48811 C 254.41423,397.11602 244.36787,402.49151 242.25943,402.6131 C 241.06388,402.68206 240.37689,402.00779 240.69547,401.07831 C 242.82886,394.8546 243.05483,395.10159 236.19725,396.1624 C 231.22721,396.9312 229.66845,396.74749 229.59254,395.38401 C 229.538,394.40245 234.30703,388.04857 240.19046,381.26429 C 251.29193,368.46318 265.23075,346.27373 272.01857,330.59656 C 275.87327,321.69399 278.51048,310.91943 276.85967,310.81774 C 276.39816,310.78927 272.21844,310.72453 267.57149,310.67381 C 258.10718,310.57051 238.53573,307.95061 237.46136,306.64322 C 235.86952,304.70578 227.9659,302.03763 224.42406,302.24188 C 218.6483,302.57498 195.57022,297.72239 188.0529,294.59424 C 184.39273,293.07111 179.29408,290.10537 176.72238,288.00367 C 174.15084,285.90197 169.65556,283.4901 166.73293,282.64396 C 157.46736,279.96146 144.21624,272.82821 137.69151,267.01071 C 132.73192,262.5886 130.36582,259.00843 126.61753,250.25435 C 123.99591,244.13136 121.71651,236.79278 121.55235,233.94636 C 121.29313,229.45188 120.69363,228.51206 116.99448,226.80219 C 114.65185,225.71933 109.78606,222.43707 106.18161,219.50836 C 99.793298,214.31762 99.617217,213.9941 99.194883,206.67129 C 98.322007,191.5357 103.20663,171.04334 110.59402,158.84929 C 114.66452,152.1303 115.0669,149.94897 112.20584,150.11396 C 111.1567,150.17446 107.58701,149.09376 104.27314,147.71243 C 99.796507,145.84637 98.204928,144.45637 98.080807,142.30418 C 97.846521,138.24203 99.848843,132.25683 102.08307,130.34075 C 106.51296,126.54169 113.93131,113.16414 120.92691,96.359693 C 134.60376,63.505753 145.19821,54.875869 167.23663,58.637453 C 172.97139,59.616283 180.92898,64.688683 193.78864,75.562413 L 199.44151,80.342363 L 208.01461,74.463993 C 220.72629,65.747753 227.85277,63.603253 243.56354,63.766323 C 282.24372,64.167893 282.34912,64.177623 291.24551,68.177983 L 299.67848,71.969883 L 313.2686,64.407263 C 326.57904,57.000249 327.06165,56.843169 336.72104,56.774427 L 346.58324,56.704255 L 356.46482,65.855853 C 361.89964,70.889233 369.55866,77.348063 373.48472,80.208823 C 380.89721,85.609903 385.51075,92.014313 387.60337,99.807943 L 388.82398,104.3544 L 405.68121,103.83616 C 426.01654,103.21097 438.05089,105.37145 456.21665,112.90854 C 466.84902,117.32001 470.62451,119.75923 479.95454,128.24481 C 492.626,139.76941 503.88949,154.01204 508.37521,164.18239 C 510.48639,168.96912 512.1658,176.70458 513.72285,188.81454 C 515.91327,205.84955 516.13544,206.6025 520.0596,210.28815 C 522.29621,212.38893 525.50904,216.51426 527.19917,219.45553 C 529.73848,223.87464 530.91448,224.76625 533.97183,224.58994 C 544.44863,223.98572 553.10623,231.32756 552.97042,240.70113 C 552.89493,245.9116 552.63566,246.28829 548.7056,246.89753 C 544.5509,247.54163 544.51881,247.50528 544.18849,241.77773 C 543.86565,236.17984 543.71638,235.9913 539.1415,235.40263 C 536.54865,235.06897 534.31033,234.98671 534.16738,235.21982 C 534.02454,235.45289 533.38884,238.85282 532.75485,242.77521 C 530.95753,253.89378 526.37367,261.02541 519.18434,263.88864 C 512.13648,266.69548 508.55938,266.11756 505.94129,261.74915 L 504.04198,258.57994 L 502.24762,261.72644 C 497.92511,269.30617 494.94868,288.48873 495.78835,303.35469 C 496.18559,310.38665 495.50265,313.57359 491.27523,324.41492 C 486.40766,336.89818 484.82093,344.87931 484.05828,360.71662 C 483.72777,367.57919 483.11762,369.12649 479.07437,373.35403 C 476.54024,376.00357 473.6363,380.05845 472.62111,382.36487 C 470.30287,387.63153 463.79055,395.03708 461.35378,395.17762 C 460.26347,395.24049 459.4369,393.99268 459.32898,392.12112 C 459.06615,387.56405 456.72943,386.93513 452.65937,390.32594 C 448.34476,393.92042 445.15553,394.30388 445.01756,391.24477 C 444.84805,387.48556 449.20572,377.51316 454.44944,369.65994 C 460.24776,360.97616 463.22742,347.5503 462.44177,333.64821 C 461.86958,323.52649 459.58433,318.13822 453.81472,313.30747 L 449.73068,309.88796 L 446.92108,318.28376 C 445.37589,322.90145 443.85261,329.60656 443.53606,333.18402 C 442.68106,342.84923 441.55398,345.40766 436.72328,348.64889 C 434.31395,350.26551 431.17977,353.97073 429.75823,356.88277 C 427.15122,362.22372 421.00588,367.60458 417.26698,367.82022 C 416.15287,367.88447 414.80425,366.79225 414.27005,365.39304 C 413.1082,362.35008 411.73575,362.2437 409.67852,365.03722 C 408.78343,366.25267 407.12538,366.84113 405.65402,366.46558 C 403.50601,365.91721 403.29983,366.29967 404.19734,369.16758 C 405.60252,373.6569 407.42146,400.41447 406.40072,401.57979 C 405.09687,403.06829 400.29428,400.24266 399.18368,397.33357 C 397.63303,393.27234 395.95599,396.27962 395.49373,403.95039 C 395.07858,410.83867 392.51509,413.27822 390.51551,408.68793 z M 390.18477,386.99439 C 389.99546,383.71186 394.28397,383.16033 396.81326,386.14192 C 398.13387,387.6987 399.43897,388.67572 399.7136,388.31308 C 399.98809,387.95043 398.34113,378.69416 396.05359,367.74361 C 391.03049,343.69856 387.46929,312.62959 389.30706,308.88637 C 390.41245,306.63484 390.72437,306.99794 391.78004,311.76518 C 392.44437,314.76561 393.35012,317.19268 393.79267,317.15866 C 395.91641,316.99548 408.38008,312.32429 417.47165,308.28423 C 437.03598,299.5903 443.39621,295.90167 443.85429,292.98338 C 444.09361,291.45909 444.6586,286.97314 445.10985,283.01462 C 447.23351,264.38479 451.7464,263.28436 451.7396,281.39801 C 451.73746,286.85254 456.60482,298.27736 465.19475,312.9811 C 471.37194,323.55478 471.39996,323.65305 472.03108,337.00228 C 472.76137,352.44494 470.49633,360.42008 462.58252,370.27216 C 457.84597,376.16859 457.67169,378.44227 462.16714,375.69031 C 464.50007,374.26222 464.8047,374.44486 464.97359,377.37315 C 465.24278,382.04089 466.8784,381.34983 469.81873,375.32607 C 471.21749,372.46058 473.21374,369.73132 474.25482,369.26107 C 475.6804,368.61711 476.02097,366.20855 475.63424,359.50286 C 475.06744,349.6748 477.57874,334.71194 481.51489,324.46503 C 483.52612,319.22922 483.97664,315.0627 483.63717,304.84266 C 483.40008,297.70633 483.94924,288.3147 484.85755,283.97231 C 486.6974,275.17739 492.86254,258.79388 498.71913,247.13598 C 500.96098,242.67354 503.86914,233.01107 505.6873,223.98415 C 508.51241,209.95749 508.66843,207.2074 507.33635,194.9261 C 504.64717,170.13193 497.81823,156.69048 479.52874,140.19211 C 463.23417,125.49329 459.77238,123.31038 445.46041,118.71021 C 430.33883,113.84976 414.96453,111.85348 399.51511,112.74447 C 389.06074,113.34738 387.2241,113.77842 386.66317,115.76066 C 383.01884,128.63951 374.05877,145.08204 362.72936,159.68163 C 356.64398,167.52346 352.74639,171.06469 345.05442,175.74021 C 335.86985,181.32304 334.61237,181.73502 326.9002,181.68854 C 316.99023,181.62879 312.59511,179.22554 307.82156,171.25636 C 304.8392,166.27736 304.45932,164.33957 304.30098,153.29364 C 304.13067,141.41194 304.40694,140.16793 311.14188,122.48381 C 319.2538,101.18429 321.7306,90.387353 320.15342,83.201393 C 319.20069,78.860593 319.36559,78.221733 321.37353,78.474693 C 322.6504,78.635573 325.21287,81.430973 327.06795,84.686683 L 330.44048,90.606193 L 322.38907,110.45192 C 311.94374,136.1981 310.97703,139.79824 311.60148,150.62595 C 312.47635,165.79593 319.21799,173.27523 331.38438,172.57355 C 344.55261,171.81413 361.31026,153.07007 373.87481,125.04633 C 382.53387,105.73348 380.19182,92.736183 366.58155,84.572033 C 363.06152,82.460483 356.1951,77.495913 351.32291,73.539673 C 340.91768,65.090573 337.71657,63.835173 330.44914,65.353313 C 324.69185,66.555983 309.09324,77.304913 303.93851,83.621743 C 300.19297,88.211673 295.0464,88.795783 294.80441,84.658373 C 294.64202,81.880803 289.9617,78.548823 280.01113,74.126733 C 275.61276,72.172133 237.25321,69.919353 231.6823,71.288493 C 221.94407,73.681833 207.77762,82.930483 201.47347,91.010633 C 199.45027,93.603643 194.33037,98.130663 190.09583,101.07063 L 182.3965,106.41605 L 190.50948,106.33515 C 198.10144,106.25947 198.77023,106.50384 200.92347,110.14086 C 204.7056,116.52898 202.53256,133.53221 197.06575,140.32599 C 195.21054,142.63159 195.35291,143.04811 199.26041,146.74697 C 203.65952,150.91113 205.94225,155.91047 204.05034,157.23707 C 203.43281,157.67007 200.66929,156.06929 197.90915,153.67978 C 193.63567,149.98023 183.2197,146.01849 178.48449,146.29158 C 177.83013,146.32933 180.45407,149.44263 184.31539,153.21006 C 190.70048,159.44001 192.72838,162.37009 190.73451,162.48508 C 190.3282,162.50851 187.13871,160.41805 183.64669,157.8396 C 175.89864,152.11849 169.84743,149.38968 165.46854,149.64223 C 162.39759,149.81934 161.00491,151.73388 163.33,152.58223 C 164.93601,153.16819 173.43673,165.04097 173.54066,166.84322 C 173.5919,167.73171 174.04073,169.3605 174.53793,170.46282 C 176.40834,174.60906 172.9764,172.30152 165.78752,164.57904 C 152.01518,149.78469 135.07418,146.28466 123.31937,155.80511 C 116.91896,160.98897 110.32224,172.59348 109.25479,180.54662 C 108.84655,183.58826 108.76613,190.91511 109.07612,196.82846 C 109.58062,206.45492 109.97956,207.88316 112.88828,210.47662 C 119.18226,216.0885 134.28113,217.45376 153.82553,214.17825 C 169.36153,211.57457 176.16692,208.67191 180.12526,202.96087 C 183.49752,198.0953 185.14632,198.53565 183.46929,203.85399 C 182.83146,205.87658 182.47817,207.63407 182.68388,207.75943 C 183.85369,208.47202 215.4951,203.63227 223.52917,201.5119 C 236.78713,198.01282 247.17174,190.52438 253.13183,180.16521 C 254.84085,177.19471 254.62482,176.73968 248.57884,170.57824 C 242.45651,164.33902 240.62614,160.90775 243.33691,160.75141 C 244.049,160.71035 244.66111,161.18802 244.69714,161.81289 C 244.77792,163.2137 253.86297,166.49127 268.27111,170.31762 C 281.67057,173.87605 290.81676,179.16702 294.53476,185.51098 C 297.80208,191.08558 296.33826,195.07547 293.01831,189.64461 C 290.6294,185.73679 283.78601,182.52085 273.46823,180.45746 C 260.8193,177.92788 260.36871,178.13565 259.7932,186.76411 C 259.09175,197.28137 254.92225,214.71066 250.88072,224.02053 C 246.11703,234.99375 240.87712,241.21061 232.77852,245.49798 C 223.42554,250.44947 215.1256,250.09484 201.4425,244.15898 C 192.23453,240.16457 190.90977,239.09419 185.71022,231.44834 C 182.58753,226.85646 178.68273,221.71776 177.03275,220.02901 L 174.03274,216.95855 L 166.26219,219.87945 C 160.30294,222.11946 137.49596,226.64573 129.92543,227.09082 C 128.31697,227.18538 129.25504,233.91437 131.70023,239.82088 C 139.76877,259.31138 150.97689,269.24194 167.90828,271.90178 C 173.36191,272.75853 176.67747,274.31114 181.51854,278.27522 C 192.38958,287.17673 212.8801,293.47746 226.22594,292.02246 C 235.79949,290.97874 247.97586,287.95935 251.84022,285.67086 C 254.25826,284.23891 257.36761,282.40534 258.74989,281.59623 C 260.13215,280.78714 263.73442,278.60777 266.75475,276.75323 C 269.77521,274.89865 272.57972,273.67853 272.98726,274.04185 C 274.38368,275.2869 266.77828,288.09928 264.56714,288.2268 C 264.15168,288.25076 261.32273,290.16889 258.28056,292.48934 C 255.23852,294.80978 251.47452,296.78185 249.91631,296.87173 C 248.22567,296.96923 247.3381,297.67551 247.71569,298.62304 C 249.07511,302.03522 274.13844,302.14083 292.86805,298.81331 C 309.26707,295.89986 315.3352,295.35894 311.60764,297.14286 C 310.2171,297.80833 308.04075,299.65174 306.77118,301.23937 C 305.50174,302.82697 303.13125,304.20273 301.50339,304.2966 C 299.87554,304.39048 298.23811,305.03237 297.86472,305.723 C 297.09187,307.15244 304.42183,307.9058 316.76108,307.66517 L 325.19527,307.50069 L 317.25394,310.54844 C 312.88625,312.22471 309.33291,313.96175 309.35762,314.40852 C 309.38233,314.8553 312.53789,316.37004 316.36983,317.7746 C 321.93456,319.81431 326.52177,320.27093 339.15729,320.04309 C 354.806,319.76086 354.9678,319.72827 354.09587,317.03605 C 352.98318,313.60017 353.91372,313.56039 358.9113,316.83023 C 362.49305,319.17376 362.94893,320.17927 363.3161,326.54586 C 363.59926,331.45571 365.84129,339.04956 370.58077,351.15161 C 374.35109,360.77891 377.49197,369.6282 377.56051,370.81671 C 377.62905,372.0052 379.22516,374.60861 381.10757,376.60201 C 382.98988,378.59542 385.28908,382.51364 386.21687,385.30922 C 387.76204,389.96458 390.42121,391.09397 390.18477,386.99439 z M 208.5934,264.64967 C 198.95272,262.26106 189.24808,256.17061 194.59178,255.86243 C 195.48423,255.81097 200.16472,256.65692 204.99294,257.74234 C 209.82113,258.82773 218.35302,259.82748 223.95282,259.96399 C 229.55249,260.10047 235.60027,260.43657 237.39213,260.7109 C 240.48266,261.184 240.52472,261.28967 238.2106,262.76684 C 234.28715,265.27134 215.83673,266.44428 208.5934,264.64967 z M 318.27054,252.93482 C 321.46029,250.50861 333.47846,234.15011 336.2882,228.41003 C 340.2974,220.21995 345.17609,205.35261 346.6885,196.7159 C 348.29983,187.51467 351.37738,187.10711 351.89178,196.02684 C 352.61586,208.5819 348.50783,226.61769 342.72556,236.26938 C 339.52858,241.60606 323.17941,253.67061 318.86687,253.87541 C 317.61207,253.93499 317.39843,253.59812 318.27054,252.93482 z M 157.0609,182.97082 C 156.61064,182.56938 156.11336,180.00587 155.95582,177.27412 C 155.75101,173.72299 155.11587,172.33925 153.72729,172.41932 C 152.65914,172.48091 151.81883,173.11437 151.85995,173.82702 C 151.90104,174.53963 150.76941,175.18989 149.34522,175.27203 C 145.84933,175.47365 145.43812,168.95604 148.73534,165.60462 C 154.15175,160.09935 160.48198,165.65761 161.10531,176.46589 C 161.40726,181.70147 159.34939,185.01127 157.0609,182.97082 z M 116.86941,182.7783 C 115.52544,181.58 115.38424,175.29327 116.61376,171.39436 C 118.55458,165.23942 125.50881,167.40194 125.90571,174.28383 C 126.06823,177.10205 125.51003,177.94663 123.40429,178.06808 C 121.78252,178.1616 120.48168,179.28104 120.16598,180.85482 C 119.62493,183.55132 118.48344,184.21738 116.86941,182.7783 z M 279.19031,140.48307 C 270.27757,135.28706 258.91883,133.3787 239.18229,133.76137 L 220.36739,134.12616 L 225.3844,131.02036 C 229.0985,128.72116 231.7058,125.36347 235.42384,118.0914 C 243.19643,102.88944 246.4058,99.474543 253.29385,99.077313 C 259.14328,98.739973 270.10352,101.91001 271.88507,104.45449 C 272.42726,105.2287 272.24988,106.70522 271.49118,107.73565 C 270.51224,109.06485 270.57746,111.53592 271.71529,116.24155 C 272.59752,119.88939 273.10901,123.9221 272.85201,125.20316 C 272.52923,126.81191 273.87064,128.33705 277.18882,130.13387 C 282.65099,133.09161 286.13346,136.98891 286.32795,140.36135 C 286.50082,143.35872 284.19055,143.39811 279.19031,140.48307 z M 266.44267,124.91372 C 266.98035,123.22663 266.32892,123.06069 262.70159,123.96064 C 259.0376,124.86967 257.70656,124.5128 254.67311,121.80817 C 251.69183,119.15004 251.07172,117.63282 251.23064,113.38547 C 251.38447,109.27518 251.01994,108.30628 249.46616,108.69555 C 247.00459,109.31223 239.77034,121.43345 239.95482,124.63221 C 240.0743,126.70393 240.89283,126.88424 246.20462,126.00913 C 249.56638,125.45531 254.97039,125.39962 258.21349,125.88538 C 261.45661,126.37116 264.48843,126.81089 264.95077,126.86256 C 265.41319,126.91422 266.08449,126.03725 266.44267,124.91372 z M 264.11042,115.51266 C 264.07436,114.88726 263.20042,113.75276 262.16821,112.99148 C 260.72831,111.92947 260.15133,112.04739 259.68888,113.49818 C 259.35747,114.53816 259.45457,115.71748 259.90484,116.11891 C 261.15515,117.23367 264.1845,116.79696 264.11042,115.51266 z M 262.29938,88.756473 C 261.89293,88.394073 257.51097,87.588593 252.56178,86.966523 C 242.50572,85.702613 240.51484,83.180353 247.7381,80.855863 C 255.86354,78.241093 266.06045,81.751213 266.37887,87.272693 C 266.48684,89.144703 263.82192,90.113963 262.29938,88.756473 z M 257.47074,385.62418 C 259.67354,383.07072 263.07573,380.56419 265.03136,380.05411 C 267.36774,379.44472 269.46663,377.41643 271.15288,374.13841 C 275.53094,365.62772 292.16374,342.26833 299.96381,333.676 C 304.05196,329.17265 307.37491,325.11 307.34826,324.64791 C 307.32161,324.18583 304.79533,322.26573 301.73434,320.38099 C 285.64251,310.47293 285.20643,310.47534 283.56731,320.4804 C 281.7207,331.75106 271.01165,351.08222 253.31103,375.09663 C 244.61335,386.89689 243.37386,389.83042 248.38061,386.76545 C 251.85859,384.63636 252.21697,384.74825 251.60996,387.77387 C 250.83295,391.6471 252.94249,390.87331 257.47074,385.62418 z M 409.86803,348.34618 C 415.1894,339.56234 416.99583,333.82072 416.59962,326.95054 C 416.32204,322.13749 415.83628,321.10282 413.90651,321.21411 C 410.93136,321.38569 398.0365,325.95249 396.79191,327.2753 C 395.91053,328.21225 400.8487,358.09427 402.55832,362.16848 C 403.07956,363.41083 403.82007,362.44331 404.68925,359.38419 C 405.42179,356.80567 407.75224,351.83856 409.86803,348.34618 z M 431.10398,344.02751 C 432.18825,343.33541 433.9552,338.64353 435.03058,333.60111 C 436.10595,328.55869 438.00922,320.91951 439.26014,316.62514 C 440.51102,312.33077 441.47097,307.71701 441.39343,306.37232 C 441.26389,304.1262 440.76887,304.24189 435.30509,307.7952 C 426.13856,313.75645 425.35487,314.8852 424.82059,322.89497 C 424.51835,327.42754 422.5712,334.34907 419.78478,340.79553 C 415.54294,350.60967 414.91839,354.86949 418.27376,351.10051 C 421.09989,347.9261 423.04793,349.05278 422.4979,353.54357 C 421.99092,357.68214 422.07455,357.62738 425.5547,351.54222 C 427.5225,348.10124 430.01973,344.71963 431.10398,344.02751 z M 519.44267,255.32581 C 521.75363,253.04641 523.89714,249.92178 524.20596,248.38214 C 524.7248,245.79618 524.51168,245.85817 521.40994,249.19539 C 517.99142,252.8736 513.24388,254.15999 511.62439,251.84697 C 509.78208,249.21579 512.00811,242.76257 515.58727,240.3583 C 520.23255,237.23797 521.39676,234.07999 517.61102,234.86889 C 513.11841,235.80511 507.40958,244.97502 507.74105,250.72261 C 508.03896,255.88822 510.54756,259.74078 513.50225,259.57038 C 514.4584,259.51523 517.13155,257.60519 519.44267,255.32581 z M 519.27529,242.90707 C 518.81625,242.4978 517.82128,243.565 517.06432,245.27864 C 515.74857,248.25722 515.78528,248.28996 517.89886,246.0228 C 519.11488,244.71844 519.73431,243.31637 519.27529,242.90707 z M 538.1384,230.75825 C 541.22763,230.49826 541.3107,230.36731 538.93402,229.50374 C 534.4653,227.88001 530.43209,228.49284 530.56374,230.77555 C 530.64253,232.14189 531.37229,232.54673 532.68646,231.95315 C 533.78778,231.45563 536.24115,230.91791 538.1384,230.75825 z M 514.89815,229.4365 C 514.85706,228.72385 514.2616,228.53476 513.57489,229.01624 C 512.8882,229.49774 512.35999,230.47473 512.40108,231.18738 C 512.44217,231.9 513.03763,232.08911 513.72435,231.60763 C 514.41104,231.12611 514.93925,230.14911 514.89815,229.4365 z M 520.90011,222.22036 C 519.17238,219.0329 516.94896,216.47167 515.95913,216.52877 C 513.32943,216.68042 513.96716,220.2377 516.86496,221.5811 C 518.2325,222.21505 520.23412,224.5609 521.31289,226.79407 C 522.39178,229.02724 523.44706,230.21569 523.65807,229.43506 C 523.86897,228.65442 522.62796,225.4078 520.90011,222.22036 z M 225.40257,237.0388 C 228.69862,236.05299 232.3477,234.02274 233.51175,232.52712 C 236.55367,228.61888 235.81916,222.76424 231.84216,219.21822 C 228.36337,216.11659 225.80839,216.34589 221.89295,220.11119 C 220.19719,221.7419 219.15353,221.82268 215.42666,220.61151 C 212.98244,219.81715 208.86682,219.46728 206.28095,219.83401 C 202.06745,220.43156 201.52033,220.96113 201.0101,224.93517 C 200.161,231.54757 201.85697,235.31067 206.60273,237.34472 C 211.70585,239.53193 217.37532,239.43967 225.40257,237.0388 z M 196.70541,221.39046 C 197.91855,218.75454 198.57213,216.29558 198.15775,215.92616 C 197.74336,215.55674 194.39099,215.60731 190.70808,216.0386 L 184.01185,216.82269 L 188.36262,222.14626 C 190.75554,225.07424 193.11535,227.18035 193.60664,226.82648 C 194.09791,226.47259 195.4923,224.02641 196.70541,221.39046 z M 245.62579,216.8443 C 247.60752,210.86528 248.83022,200.73452 247.56125,200.8077 C 246.12643,200.89046 221.14748,210.23492 218.34813,211.73612 C 216.37413,212.79478 216.66043,212.8799 219.66983,212.12902 C 221.78282,211.60179 224.80802,210.76205 226.39237,210.26291 C 231.17706,208.75553 236.87574,211.62246 239.7196,216.96772 C 241.14624,219.64926 242.68821,221.83672 243.14592,221.82877 C 243.60374,221.82081 244.71966,219.57781 245.62579,216.8443 z M 158.72497,145.13624 C 161.50997,142.95384 163.02663,117.28312 160.36158,117.43683 C 159.68365,117.47591 157.49654,120.20258 155.50128,123.4961 C 153.50599,126.7896 149.36621,131.515 146.30179,133.99699 C 143.23723,136.47901 140.78025,138.8464 140.8418,139.25789 C 140.97826,140.17113 154.29791,146.2157 156.11156,146.18743 C 156.82536,146.17631 158.0015,145.70326 158.72497,145.13624 z M 124.43372,137.59931 C 129.6562,135.29292 133.56799,132.1107 139.48384,125.35637 C 150.41736,112.87291 162.84066,91.664443 165.87442,80.303273 C 166.58818,77.630753 167.69841,75.413783 168.34165,75.376693 C 171.15584,75.214373 171.54673,82.530343 169.23629,92.119243 C 167.91185,97.616313 166.65404,103.87894 166.4411,106.03622 L 166.05416,109.95854 L 170.17978,105.61186 C 172.44876,103.22122 178.11421,98.892063 182.76957,95.991513 C 188.41635,92.473333 191.18872,89.934743 191.09822,88.365433 C 190.90858,85.077273 179.25629,76.141713 169.88496,72.098113 C 160.92431,68.231683 149.60407,67.529283 144.64465,70.531973 C 139.43706,73.684963 132.89845,85.008753 128.57657,98.358933 C 123.44419,114.21328 121.15013,118.84015 114.58624,126.57673 C 108.17729,134.13065 106.09815,139.62382 109.39507,140.29224 C 114.08876,141.24392 117.6084,140.61367 124.43372,137.59931 z M 172.59408,134.6063 C 173.21726,133.67663 174.30111,130.36028 175.00249,127.23662 C 175.70386,124.11298 178.17814,119.19148 180.50084,116.29994 C 184.6555,111.12786 184.67612,111.03041 181.77726,110.29039 C 179.49386,109.70749 178.23103,110.38663 176.16719,113.30736 C 173.81035,116.64269 168.92118,131.79279 169.11534,135.15924 C 169.21817,136.94241 171.24388,136.62045 172.59408,134.6063 z M 190.40714,132.59484 C 190.80892,131.85162 190.20328,130.94519 189.06131,130.58056 C 187.88892,130.20625 186.48999,127.66321 185.84841,124.73973 L 184.71193,119.56188 L 182.62522,124.09251 C 179.80811,130.20935 179.98995,131.17091 184.22967,132.57104 C 189.07774,134.17204 189.55342,134.17387 190.40714,132.59484 z M 193.64605,117.76751 C 193.24069,116.91074 193.03167,117.95767 193.18135,120.09403 C 193.33107,122.2304 193.66263,122.9314 193.91812,121.65181 C 194.17377,120.37221 194.05125,118.62428 193.64605,117.76751 z "
       style="opacity:0.8;fill:black;fill-opacity:1;stroke:none" />
    <path
       style="fill:#f07878;fill-opacity:1;fill-rule:evenodd;stroke:none"
       d="m 333.3121,63.298 c -10.75715,1.249177 -19.06809,9.523442 -27.21875,15.90625 -2.80371,1.807162 -5.44986,6.848424 -9.09375,6.21875 -2.34631,-7.578562 -11.1062,-10.14981 -17.65625,-13.125 -15.43555,-2.923204 -31.6172,-2.984624 -47.375,-2.75 -16.67891,3.735936 -28.14323,17.258731 -40.375,28.15625 -4.50604,3.63254 -9.50883,6.79241 -14.28125,10.1875 6.8929,0.69983 14.76717,-0.52911 21.03125,1.4375 4.9465,8.57604 2.42975,19.64184 -1.5,28.0625 -2.38588,2.55682 -3.50463,6.58838 -0.21875,9 2.04635,2.39933 5.42512,5.78805 5.90625,8.4375 -7.02983,-4.54778 -14.9216,-10.57398 -23.71875,-9.65625 -3.79236,3.38372 2.9073,6.88303 4.5669,9.50324 4.98562,4.7982 -1.63563,-0.34668 -4.14551,-1.70128 -5.01288,-2.84527 -11.83733,-7.0945 -17.54639,-3.77071 -2.97478,4.01583 3.6379,6.48545 4.90625,9.71875 2.24839,2.93155 4.2877,6.05909 5.53125,9.5625 -9.66051,-9.60045 -21.05018,-21.03137 -36,-19.5 -14.62821,1.10665 -23.87204,15.35981 -27.875,28.0625 -1.29638,10.19104 -1.94563,21.26566 0.84375,31.21875 6.78877,10.15399 20.86803,9.3103 31.6875,9.0625 13.18706,-1.54572 28.35378,-1.96056 38.75,-11.21875 1.7635,-1.89203 2.2934,-2.81363 1.65625,0.125 0.41717,5.11863 7.26763,2.43844 10.51612,2.44195 19.24002,-3.40499 41.69912,-3.72536 55.90974,-19.02406 3.05493,-3.81883 9.34,-8.41204 7.38664,-13.91789 -2.64765,-4.14755 -6.38223,-7.24185 -9.34375,-11.1875 14.83213,7.53883 34.31071,7.08762 46,20.125 1.2814,1.36519 3.63457,5.61178 0.71875,2.09375 -7.15632,-6.65801 -17.5796,-7.75342 -26.875,-9.28125 -4.19471,-0.93124 -7.50792,2.56054 -7.09375,6.6875 -2.55493,18.39327 -5.4966,38.56112 -17.96875,53.34375 -8.20559,9.05145 -22.02553,12.21636 -33.0625,7.03125 -8.58285,-2.61299 -16.73207,-7.17896 -21.20624,-15.31373 -3.57338,-5.05489 -7.41759,-9.91018 -11.79376,-14.34252 -14.45162,6.25936 -30.3854,8.29123 -45.65625,10.84375 -2.78735,4.02201 0.11692,9.71112 1.21875,14 5.90477,16.1829 18.94272,31.11382 36.69788,33.64112 11.62569,1.81782 19.49615,12.21609 30.76508,15.44084 21.99517,9.21074 48.123,4.63641 67.33872,-8.83515 1.89098,-0.89723 7.94205,-5.52227 4.66707,-0.80931 -4.28373,9.17007 -14.57884,12.84523 -22.53125,17.71875 -2.18785,4.39098 4.38445,5.42101 7.40625,5.4375 17.94269,1.72263 35.7273,-1.30326 53.3125,-4 -2.47377,2.93685 -5.99541,4.31841 -9.59375,5.09375 -3.57792,2.17598 -0.0914,6.05919 3.15625,5.375 4.8451,0.35457 9.70719,0.40575 14.5625,0.53125 -2.49209,1.48972 -9.85235,3.16446 -6.4375,7.03125 13.35917,7.59564 29.73958,5.43144 44.53125,4.625 2.90857,-0.16359 1.02063,-5.71488 3.6875,-2.96875 6.03532,3.47397 3.26854,11.85384 5.90254,17.33571 4.21436,13.1277 8.96998,26.27728 14.03496,39.03929 4.3359,4.85851 6.37909,11.41395 10.4375,16.3125 3.19361,1.58365 4.13591,-2.4411 4.5625,-4.5 3.49482,-0.48219 5.74904,4.72548 8.65625,6.21875 0.22975,-15.36115 -5.2014,-30.17397 -6.85071,-45.38726 -1.61683,-10.84313 -3.57983,-22.89653 -3.58679,-33.23774 0.40144,2.80928 2.33363,6.38271 5.59375,4.5625 16.09721,-6.04968 32.64596,-12.17654 47,-21.625 4.28368,-5.52928 2.66744,-13.59043 4.75,-20.0625 0.51372,-3.48084 1.57232,-6.52416 1.65625,-1.09375 -0.13377,18.51676 12.97031,32.99433 19.40625,49.40625 1.38021,10.30591 2.26656,21.46408 -0.71875,31.53125 -2.03173,7.26073 -8.18614,12.60822 -10.96875,19.40625 -0.16296,4.19628 4.64395,1.27443 5.9375,1.53125 -0.40028,3.4764 3.84275,6.22085 5.65625,2.4375 2.39516,-4.31296 5.70402,-8.35633 8.375,-12.1875 -0.62439,-15.6424 1.53957,-31.13957 6.64321,-45.87777 3.55236,-15.95426 -0.89964,-33.12368 5.79411,-48.50971 6.1981,-17.98059 16.12578,-34.77142 18.48934,-53.87804 3.49622,-22.50776 -0.30376,-47.44837 -14.05166,-65.89073 -9.84765,-11.96999 -21.45579,-22.92376 -34.6875,-31 -21.88283,-10.16594 -47.09772,-14.03137 -71.09375,-10.25 -5.24208,2.75344 -4.81217,10.23431 -7.875,14.78125 -10.33013,20.91344 -23.29654,43.15745 -45.96875,52.09375 -8.45254,1.32564 -19.2938,1.58101 -24.0625,-6.96875 -6.29268,-8.20668 -4.01252,-19.37357 -4.09375,-29 3.38757,-17.47236 13.72127,-33.76123 15.28125,-51.8125 0.53025,-2.961867 -0.72705,-9.298218 0.5625,-10.09375 3.1819,4.061857 8.32771,9.087067 4.25,14.28125 -5.6251,16.31338 -14.67783,31.82721 -16.8125,49.09375 -0.16888,10.39772 1.78866,24.12307 12.90625,28.28125 12.79842,4.97192 25.29625,-5.13309 32.84375,-14.5 11.23494,-14.41155 21.30695,-30.75983 24.78125,-48.9375 2.2187,-10.890503 -4.02742,-21.712782 -13.5625,-26.875 -9.56859,-5.825756 -17.43066,-14.655053 -27.84375,-18.84375 -1.80745,-0.407678 -3.66896,-0.592984 -5.53125,-0.5 z m -79.15625,18.59375 c 3.49756,-0.02503 10.1391,1.486382 10,5.53125 -5.82188,-1.322633 -12.59591,-2.207801 -18.40625,-3.84375 2.57806,-1.346277 5.53905,-1.623556 8.40625,-1.6875 z m -0.4375,18.9375 c 5.63185,0.37788 12.23083,1.41871 16.625,4.84375 -2.95206,6.78915 1.00071,14.07442 1.09375,21.0625 2.86532,5.85876 12.2809,6.90299 13.0625,14.03125 -9.02094,-3.90882 -18.11902,-8.26519 -28.27883,-8.1946 -9.91944,-0.48368 -19.85586,-0.33387 -29.78367,-0.3679 11.02926,-7.40455 12.14205,-23.47471 23.28125,-30.65625 1.26295,-0.50553 2.59929,-0.71985 4,-0.71875 z M 154.1246,165.3605 c 4.96091,2.83119 5.99833,11.97574 4.28125,15.59375 -1.05501,-3.39867 -0.17078,-11.42074 -5.9375,-9.90625 -1.63177,0.53404 -3.02548,4.24636 -4.09375,0.90625 -0.6642,-3.35627 2.26244,-6.89557 5.75,-6.59375 z m -33.40625,4.375 c 3.47214,0.10762 5.39622,7.4208 0.75,7.3125 -2.22571,0.0837 -3.53731,6.8671 -3.8125,2.4375 0.37551,-2.94799 -0.80267,-8.67854 2.875,-9.78125 l 0.1875,0.0312 z m 229,23.40625 c 0.97061,15.01338 -1.68328,30.88483 -9.65625,43.8125 -5.03267,5.34285 -11.04676,9.70172 -17.28125,13.53125 11.49786,-13.07772 19.72205,-28.81019 23.67651,-45.74404 1.07148,-3.53645 2.03541,-9.43467 3.26099,-11.59971 z m -151.625,65.03125 c 11.73719,2.5769 23.66329,3.47592 35.65625,4.0625 -12.23998,2.34597 -25.90154,2.73302 -36.71875,-4.21875 l 0.98936,0.14549 0.0731,0.0108 z"
       id="path3830"
       inkscape:connector-curvature="0" />
    <path
       style="fill:#f07878;fill-opacity:1;fill-rule:evenodd;stroke:none"
       d="m 286.53085,311.39175 c -5.33049,2.30128 -3.9724,9.79632 -6.21875,14.3125 -7.8067,22.28797 -24.03402,40.54288 -36.21875,60.53125 -1.11699,4.30179 4.60023,2.4173 5.65625,2.15625 -0.65576,3.55114 3.56229,4.44137 5.34375,1.6875 4.1584,-4.11486 8.75621,-7.69657 13.875,-10.46875 7.4342,-9.06168 12.48214,-20.01797 19.9455,-29.07994 5.87947,-8.92171 14.04466,-16.22531 19.5545,-25.20131 -0.73197,-5.15343 -7.39891,-6.61985 -10.96875,-9.4375 -3.49581,-1.54695 -6.98939,-4.65294 -10.96875,-4.5 z"
       id="path3832"
       inkscape:connector-curvature="0" />
    <path
       style="fill:#f07878;fill-opacity:1;fill-rule:evenodd;stroke:none"
       d="m 151.15585,67.173 c -11.3149,0.355116 -16.46953,12.56597 -20.5625,21.34375 -5.57021,13.57607 -8.83532,28.35666 -19.09385,39.36707 -2.30661,3.62145 -7.86191,9.22505 -3.84365,13.41418 9.29862,3.23964 19.19355,-2.42548 26.34375,-8.0625 14.45858,-13.85898 25.28394,-31.69013 32.71875,-50.21875 0.8863,-3.168234 2.33481,-6.633573 2.0625,-1.75 -0.0451,9.370759 -4.07373,18.51595 -4,27.71875 3.33846,4.25421 6.54083,-3.20822 9.5625,-4.71875 5.58538,-5.528045 14.52498,-7.982893 18.1875,-15.15625 -0.50224,-6.344635 -7.89937,-9.376756 -12.21457,-13.074501 -8.58614,-5.757089 -18.6405,-9.615017 -29.16043,-8.862999 z"
       id="path3834"
       inkscape:connector-curvature="0" />
    <path
       style="fill:#f07878;fill-opacity:1;fill-rule:evenodd;stroke:none"
       d="m 436.9996,306.07925 c -6.67893,2.88018 -10.93085,10.05967 -13.53125,16.5625 -0.12267,8.27645 -4.84259,15.64907 -5.0625,23.84375 0.29744,4.41398 6.24167,7.71915 9.125,3.375 7.53005,-9.12636 9.36899,-21.55793 12.21875,-32.75 0.2677,-3.27695 3.01403,-11.21835 -2.75,-11.03125 z"
       id="path3836"
       inkscape:connector-curvature="0" />
    <path
       style="fill:#f07878;fill-opacity:1;fill-rule:evenodd;stroke:none"
       d=""
       id="path3838"
       inkscape:connector-curvature="0"
       transform="translate(98.0621,56.70425)" />
    <path
       style="fill:#f07878;fill-opacity:1;fill-rule:evenodd;stroke:none"
       d="m 112.06355,180.68234 c -6.20123,-1.83902 -8.04132,-4.11348 -8.04132,-9.93955 0,-6.40141 2.60935,-7.77135 12.09336,-6.34914 4.5948,0.68904 7.08467,0.3156 9.81242,-1.47169 3.5131,-2.30187 3.7907,-2.26777 7.13819,0.87704 1.91562,1.79963 3.48294,4.70592 3.48294,6.45842 0,3.87637 -5.59133,8.52884 -11.73367,9.76343 -2.49138,0.50075 -5.48438,1.11998 -6.6511,1.37605 -1.16673,0.25607 -3.9121,-0.0655 -6.10082,-0.71456 z"
       id="path3840"
       inkscape:connector-curvature="0"
       transform="translate(98.0621,56.70425)" />
    <path
       style="fill:#f07878;fill-opacity:1;fill-rule:evenodd;stroke:none"
       d=""
       id="path3842"
       inkscape:connector-curvature="0"
       transform="translate(98.0621,56.70425)" />
    <path
       style="fill:#f07878;fill-opacity:1;fill-rule:evenodd;stroke:none"
       d="m 141.03021,158.11277 c -1.71704,-2.32243 -4.79211,-4.6418 -6.83348,-5.15415 -3.34889,-0.84052 -2.84121,-1.25874 5.19562,-4.28004 4.89895,-1.84166 9.22928,-3.02639 9.62295,-2.63273 1.02087,1.02087 -2.5563,16.28953 -3.81634,16.28953 -0.57576,0 -2.4517,-1.90018 -4.16875,-4.22261 z"
       id="path3844"
       inkscape:connector-curvature="0"
       transform="translate(98.0621,56.70425)" />
    <path
       style="fill:#ff7878;fill-opacity:1;fill-rule:evenodd;stroke:none"
       d="m 91.462158,165.39952 c -2.601339,-3.65324 -2.696306,-4.29086 -0.750305,-5.03761 1.2254,-0.47023 3.746969,-0.85496 5.603485,-0.85496 3.573828,0 3.533571,2.05167 -0.147408,7.51248 -1.609893,2.38832 -1.930172,2.27806 -4.705772,-1.61991 z"
       id="path3846"
       inkscape:connector-curvature="0"
       transform="translate(98.0621,56.70425)" />
    <path
       style="fill:#ff0000;fill-opacity:1;fill-rule:evenodd;stroke:none"
       d="m 226.84335,216.6105 c -3.55054,1.07834 -6.4856,3.75112 -10.5625,2.625 -5.48106,0.0331 -13.18535,-2.02611 -15.46875,4.4375 -1.55802,5.91861 0.8349,13.30994 7.34375,14.78125 7.44658,3.21995 16.0863,0.43015 22.71875,-3.5 4.52125,-2.63223 7.3601,-8.9278 3.3125,-13.3125 -1.77991,-2.24912 -4.16038,-5.19641 -7.34375,-5.03125 z"
       id="path3848"
       inkscape:connector-curvature="0" />
    <path
       style="fill:#ff0000;fill-opacity:1;fill-rule:evenodd;stroke:none"
       d="m 140.67274,157.66509 c -3.01993,-3.14168 -4.55129,-4.34128 -6.25,-4.89598 l -2.25,-0.73471 1.5,-0.76671 c 2.31414,-1.18286 13.1889,-4.89449 14.34043,-4.89449 0.95411,0 1.00038,0.19538 0.67088,2.83259 -0.60946,4.87802 -2.84873,12.69086 -3.62394,12.64399 -0.21305,-0.0129 -2.18737,-1.89599 -4.38737,-4.18469 z"
       id="path3850"
       inkscape:connector-curvature="0"
       transform="translate(98.0621,56.70425)" />
    <path
       style="fill:#000000;fill-opacity:1;fill-rule:evenodd;stroke:none"
       d="m 91.950257,165.54181 c -1.115135,-1.55727 -2.027518,-3.23419 -2.027518,-3.7265 0,-1.05203 2.647113,-1.93504 5.813777,-1.93932 2.866177,-0.004 3.353141,0.76645 2.163813,3.4229 -1.145116,2.5577 -2.873071,5.07431 -3.484119,5.07431 -0.24114,0 -1.350818,-1.27412 -2.465953,-2.83139 z"
       id="path3852"
       inkscape:connector-curvature="0"
       transform="translate(98.0621,56.70425)" />
    <path
       style="fill:#000000;fill-opacity:1;fill-rule:evenodd;stroke:none"
       d="m 247.875,195.25 c -13.56631,3.07138 -26.59419,8.1773 -39.15625,14.125 10.365,0.6884 20.48504,4.87749 27.40625,12.71875 4.61084,4.43578 13.15096,3.75984 15.21875,-2.90625 1.46305,-5.56079 2.52409,-11.32045 3.875,-16.8125 -0.0728,-3.7673 -3.23359,-7.72616 -7.34375,-7.125 z"
       id="path3854"
       inkscape:connector-curvature="0" />
    <path
       style="fill:#000000;fill-opacity:1;fill-rule:evenodd;stroke:none"
       d="m 191.15625,211.09375 c -8.45882,0.12355 -9.81397,11.89574 -4.46875,16.78125 3.73079,5.31758 11.37915,1.98643 13.40625,-3.125 3.78362,-5.48389 0.0514,-14.73874 -7.28125,-13.6875 -0.55204,0.0122 -1.10507,-0.0227 -1.65625,0.0312 z"
       id="path3856"
       inkscape:connector-curvature="0" />
    <path
       style="fill:#ffffff;fill-opacity:1;fill-rule:evenodd;stroke:none"
       d="m 183.7496,119.70425 c -3.04745,2.60996 -5.12456,7.78957 -4,11.84375 2.51604,2.7263 7.27139,4.65043 10.90625,3.375 3.97443,-3.79271 -3.23952,-6.7438 -3.03664,-10.77934 -0.5094,-1.87771 -1.1616,-5.21003 -3.86961,-4.43941 z"
       id="path2998"
       inkscape:connector-curvature="0" />
    <path
       style="fill:#ffffff;fill-opacity:1;fill-rule:evenodd;stroke:none"
       d="m 249.2496,107.173 c -5.57844,3.30826 -8.59767,10.14061 -10.78125,16.03125 -1.09997,4.26459 2.07099,5.46635 6.06211,4.4757 6.85284,-0.50335 13.72497,0.22701 20.46914,0.61805 4.53251,-0.6033 3.5602,-8.20432 -1.21875,-6.375 -5.46402,2.58403 -11.67551,-2.92129 -10.84239,-8.52697 -0.15738,-2.30707 -0.0948,-6.8836 -3.68886,-6.22303 z"
       id="path3768"
       inkscape:connector-curvature="0" />
    <path
       style="fill:#ffffff;fill-opacity:1;fill-rule:evenodd;stroke:none"
       d="m 260.1871,110.548 c -4.66213,1.77005 -1.53039,9.88938 3.21875,7.625 5.14571,-1.73237 -0.005,-7.73439 -3.21875,-7.625 z"
       id="path3770"
       inkscape:connector-curvature="0" />
    <path
       style="fill:#f07878;fill-opacity:1;fill-rule:evenodd;stroke:none"
       d="m 191.96835,116.14175 c -1.91431,2.52464 -0.6942,10.33902 3.40625,7.15625 1.32201,-2.44842 0.69543,-9.95693 -3.40625,-7.15625 z"
       id="path3772"
       inkscape:connector-curvature="0" />
    <path
       style="fill:#f07878;fill-opacity:1;fill-rule:evenodd;stroke:none"
       d="m 180.21835,108.673 c -6.77798,1.34613 -7.70713,9.96454 -10.125,15.28125 -0.62835,4.29519 -4.69457,9.89289 -1.1875,13.65625 5.41029,1.35173 6.63845,-6.28451 7.78125,-9.90625 1.25704,-6.2252 6.53027,-10.53512 8.625,-16.125 -0.11829,-2.42155 -3.10135,-3.17063 -5.09375,-2.90625 z"
       id="path3774"
       inkscape:connector-curvature="0" />
    <path
       style="fill:#000000;fill-opacity:1;fill-rule:evenodd;stroke:none"
       d="m 292.28107,351.04788 c -1.0121,-1.58125 -5.27516,-9.69499 -9.47347,-18.03053 -8.00115,-15.88592 -11.24307,-23.87985 -20.11291,-49.59447 -3.38135,-9.8029 -4.00744,-11.23525 -4.86734,-11.13534 -0.54276,0.0631 -7.28683,0.26307 -14.98683,0.44447 -13.03238,0.30703 -14.38332,0.25591 -19.54608,-0.73965 -8.98771,-1.73315 -8.66458,-1.82128 -11.79267,3.21624 -7.74187,12.46761 -9.23021,14.7269 -12.14237,18.43199 -1.74313,2.21776 -5.46637,6.50729 -8.27385,9.53229 -6.42932,6.92744 -10.31637,11.74307 -12.76332,15.81236 -3.11423,5.17899 -4.18838,6.35851 -8.69552,9.54853 -4.87986,3.45384 -8.07208,6.00242 -12.06686,9.63389 -3.04888,2.7716 -11.27735,7.25522 -13.31498,7.25522 -1.21622,0 -1.26574,-0.10064 -0.92274,-1.875 0.19935,-1.03125 0.47462,-2.46169 0.61171,-3.17874 0.31842,-1.6655 -0.35715,-1.91402 -3.84332,-1.41383 -4.55174,0.65308 -8,0.56377 -8,-0.20719 0,-1.03976 2.20779,-4.09487 8.79284,-12.1674 7.33522,-8.99215 11.19121,-14.1723 15.93554,-21.40784 8.62126,-13.14823 15.99127,-26.99279 19.28574,-36.22825 2.02573,-5.67876 3.76133,-13.08275 3.33017,-14.20633 -0.1867,-0.48652 -2.43297,-0.7452 -8.67312,-0.99879 -15.0858,-0.61306 -28.7474,-2.5848 -31.78525,-4.58749 -2.64387,-1.74295 -8.88169,-3.72862 -11.72408,-3.73209 -5.26968,-0.006 -20.92016,-2.94573 -30.766965,-5.77829 -6.863705,-1.97443 -10.327875,-3.63574 -17.144875,-8.22215 -6.205315,-4.17486 -5.927895,-4.03373 -13.14727,-6.68872 -12.050775,-4.43178 -22.641241,-10.80174 -28.743892,-17.2889 -3.086778,-3.28126 -4.32773,-5.11723 -6.585791,-9.74355 -3.302616,-6.76641 -6.601682,-16.33921 -7.073666,-20.52544 -0.470918,-4.17677 -1.235411,-5.39417 -4.557659,-7.25774 C 14.930168,167.50195 8.9032335,163.15962 5.5604545,160.0648 1.8715422,156.64952 1.5558231,155.57031 1.5320783,146.29478 1.494081,131.4518 4.9297375,117.64873 12.172919,103.5442 14.3276,99.348424 16.09052,95.370629 16.09052,94.704649 c 0,-1.064695 -0.330865,-1.27956 -2.740746,-1.77985 -3.230234,-0.670595 -8.1182255,-2.524185 -10.4394325,-3.95877 -2.3630423,-1.46044 -2.86991575,-2.88706 -2.2947294,-6.458645 0.6576447,-4.0836 1.5500984,-6.007505 4.2421084,-9.14493 4.80281,-5.59747 10.7480615,-16.49902 18.2365495,-33.439575 2.248905,-5.0875 5.241768,-11.5 6.650807,-14.25 C 38.548164,8.492036 47.513865,1.4466471 60.59052,1.4340466 71.319105,1.4237086 76.76924,4.0119485 92.020235,16.359853 c 3.94884,3.197164 7.688415,6.204287 8.310155,6.682496 1.11215,0.855398 1.24558,0.791819 8.24399,-3.928356 15.78327,-10.64524 19.70034,-11.7031915 43.20663,-11.6695815 18.2863,0.026145 30.0173,0.604707 34.15975,1.684724 1.70514,0.4445615 5.85,2.0425195 9.2108,3.5510185 3.3608,1.508498 6.25991,2.742725 6.44246,2.742725 0.18256,0 5.0189,-2.5958 10.74743,-5.768445 5.72853,-3.1726445 12.00931,-6.485776 13.95729,-7.3625139 3.50454,-1.57730811 3.63948,-1.59599276 12.83388,-1.77705426 l 9.2921,-0.18298552 4.37825,4.05621578 c 6.51797,6.0385419 14.73054,13.1703699 22.05976,19.1567649 8.87933,7.252512 11.78868,11.265295 14.41846,19.886995 l 1.29689,4.251841 18.38122,-0.0054 c 16.92191,-0.005 18.83772,0.08248 24.13122,1.101589 7.65611,1.473968 14.81238,3.640553 23,6.963343 12.64456,5.13156 17.69227,8.50678 28.68356,19.17966 11.67173,11.33361 19.53932,21.37686 24.08866,30.750001 3.10238,6.39194 4.45185,11.87057 6.46574,26.25 1.39882,9.98769 2.39735,15.48193 3.19366,17.57257 0.27707,0.72741 1.99963,2.97741 3.8279,5 1.82828,2.02258 4.57349,5.54858 6.10046,7.83555 1.52697,2.28697 3.2519,4.45388 3.83317,4.81537 0.58126,0.36148 3.22495,0.89229 5.87485,1.17957 7.47868,0.81077 12.21029,3.77715 14.97055,9.38548 0.98333,1.99795 1.21145,3.23352 1.21145,6.56146 0,2.255 -0.225,4.31895 -0.5,4.58657 -0.275,0.26761 -1.69364,0.7004 -3.15254,0.96175 -3.49355,0.62583 -3.89882,0.16989 -4.34676,-4.89038 -0.46758,-5.28225 -1.0023,-5.91005 -5.48717,-6.44227 -1.91757,-0.22757 -3.83661,-0.32219 -4.26455,-0.21028 -0.55699,0.14566 -1.03959,1.65133 -1.69843,5.29904 -0.50619,2.80256 -1.36538,6.55807 -1.9093,8.34557 -3.02758,9.94961 -9.43761,15.72886 -18.16623,16.37859 -2.72092,0.20253 -3.18447,0.091 -4.6117,-1.10997 -0.87269,-0.73432 -2.08413,-2.22016 -2.69208,-3.30188 -0.60797,-1.08171 -1.2706,-1.96674 -1.47253,-1.96674 -0.62383,0 -2.37376,3.18227 -3.73874,6.79896 -3.0786,8.15713 -4.70629,19.77573 -4.71865,33.68203 -0.0104,11.62818 -0.30148,13.24476 -4.46098,24.76901 -4.80383,13.30943 -6.05044,19.08033 -7.02057,32.5 -0.77884,10.7738 -0.98471,11.44016 -5.04645,16.33499 -1.90088,2.29075 -4.86376,6.52751 -6.58419,9.41501 -3.28465,5.51285 -9.3671,12.5 -10.88148,12.5 -1.19502,0 -1.80461,-0.89698 -2.15408,-3.16962 -0.62233,-4.04711 -2.59872,-4.34037 -7.42614,-1.1019 -4.42108,2.96588 -5.70839,3.27737 -6.48652,1.56956 -1.08217,-2.37509 2.39577,-11.04414 8.37704,-20.88049 6.70214,-11.02183 9.0879,-21.05506 8.54067,-35.91755 -0.39294,-10.67236 -1.98527,-15.5577 -6.56293,-20.13536 -3.07513,-3.07513 -6.16209,-5.47255 -6.44086,-5.00216 -0.4026,0.67933 -3.73216,11.27306 -4.52193,14.38752 -0.41842,1.65 -1.23412,6.15 -1.81267,10 -1.29313,8.60514 -2.13208,10.46452 -6.17388,13.68324 -3.44071,2.74003 -5.28887,4.91693 -7.85174,9.24836 -2.05846,3.47893 -7.84721,9.03048 -10.23963,9.82005 -2.12253,0.7005 -3.4144,0.0938 -4.55957,-2.14147 -0.45372,-0.8856 -1.04346,-1.75135 -1.31053,-1.9239 -0.81647,-0.52749 -2.20475,0.0814 -3.66816,1.60889 -1.1172,1.16611 -1.82177,1.45483 -3.55027,1.45483 -2.41685,0 -2.56111,0.36568 -1.67656,4.25 1.09786,4.82101 2.77763,27.79987 2.20033,30.1 -0.16313,0.64997 -0.66772,1.15 -1.16048,1.15 -1.40494,0 -4.13805,-2.11085 -5.65215,-4.36529 -0.84187,-1.25352 -1.6739,-1.98579 -2.07947,-1.83016 -0.82154,0.31526 -1.55462,3.06528 -2.299,8.62422 -0.61613,4.60119 -1.30686,6.57123 -2.30402,6.57123 -0.3599,0 -1.48246,-1.29375 -2.49455,-2.875 z m -133.02933,-21.5 c 3.05957,-2.90491 5.73026,-4.93281 7.94799,-6.03504 3.52949,-1.75419 4.13978,-2.46695 8.63932,-10.08996 5.11005,-8.65733 17.25908,-25.42407 25.28931,-34.90149 6.91392,-8.15995 8.60626,-10.46085 8.18974,-11.13479 -1.04633,-1.69299 -16.58104,-10.73412 -19.28282,-11.22251 -1.55239,-0.28062 -1.94794,-0.1449 -2.82416,0.96903 -0.56041,0.71244 -1.27697,2.77717 -1.59236,4.58828 -2.21146,12.69912 -10.64736,28.56579 -28.30227,53.23232 -11.40546,15.93513 -12.57454,18.61092 -6.65201,15.22518 1.19682,-0.68419 2.35498,-1.24669 2.57369,-1.25 0.21872,-0.003 0.25024,0.77978 0.0701,1.74021 -0.36205,1.92991 -0.0393,3.25377 0.79325,3.25377 0.29828,0 2.6159,-1.96875 5.15026,-4.375 l 0,0 z m 133.13132,1.5 c 0.44469,-2.46795 1.02918,-3.125 2.77985,-3.125 0.99665,0 2.12828,0.62526 3.61969,2 1.19336,1.1 2.41169,2 2.7074,2 0.72569,0 0.64067,-0.52956 -4.37512,-27.25 -4.62781,-24.65358 -7.08809,-47.88708 -5.51037,-52.0368 0.28269,-0.74354 0.63817,-1.2277 0.78996,-1.07592 0.15179,0.15179 0.72747,2.03924 1.27929,4.19435 0.55182,2.1551 1.21636,4.17549 1.47676,4.48975 1.7298,2.08763 43.56,-16.11692 48.97847,-21.31549 1.57437,-1.51047 1.87848,-2.17521 2.17573,-4.75589 1.44516,-12.54654 3.03707,-20.12342 4.56162,-21.7116 1.09843,-1.14428 1.73962,1.30692 2.47499,9.4616 0.91535,10.15042 3.08209,15.74628 12.90592,33.33106 2.89407,5.18042 5.6362,10.72128 6.09363,12.31302 0.50546,1.75888 0.96269,5.8775 1.16566,10.5 0.7753,17.65665 -0.83113,23.88319 -9.06804,35.14794 -3.23707,4.42698 -4.54039,7.20798 -3.37803,7.20798 0.31809,0 1.49809,-0.44437 2.6222,-0.98748 1.12412,-0.54312 2.20789,-0.8861 2.40838,-0.76219 0.20049,0.12391 0.48963,1.15802 0.64254,2.29802 0.56267,4.19504 1.88962,3.80218 4.8737,-1.44295 1.20639,-2.12047 3.09669,-4.83541 4.20068,-6.03321 l 2.00725,-2.1778 0.0823,-9.0722 c 0.11361,-12.52611 1.20924,-19.44796 5.03691,-31.82141 2.5505,-8.24485 3.36422,-14.04549 2.91094,-20.75078 -0.41635,-6.15903 0.51677,-19.11008 1.74125,-24.16735 1.9162,-7.91414 6.29721,-19.62917 11.97423,-32.01955 3.66957,-8.00903 6.01739,-15.46433 8.36527,-26.5631 2.2621,-10.6933 2.68569,-19.51709 1.42817,-29.75 -3.27112,-26.6182 -10.20428,-38.748926 -34.01376,-59.512741 -9.41091,-8.20709 -14.26073,-11.12244 -24.40374,-14.669705 -16.48125,-5.76392 -33.24769,-8.145415 -49.93378,-7.09257 -4.58522,0.28931 -9.19387,0.807045 -10.24143,1.15052 -1.8648,0.61143 -1.94796,0.746505 -3.9741,6.455345 -4.50873,12.703805 -13.71468,28.509835 -24.045,41.283721 -4.75439,5.87901 -7.63135,8.47007 -14.15195,12.74557 -9.94128,6.51841 -14.83543,7.97524 -23.31,6.93864 -7.37657,-0.90231 -10.83069,-3.17099 -14.91889,-9.79878 -3.41134,-5.53046 -3.52111,-6.11502 -3.52111,-18.750001 0,-13.062745 -0.58418,-10.450475 7.09577,-31.73037 2.87429,-7.9642 5.93696,-17.0767 6.80593,-20.249998 1.48118,-5.408973 1.57811,-6.277525 1.55062,-13.894632 -0.0161,-4.46875 0.17155,-8.125 0.41705,-8.125 1.6283,0 4.35246,3.20033 7.57079,8.894141 l 1.73921,3.076977 -7.66557,19.156117 c -10.59169,26.468425 -11.68964,30.448995 -11.06689,40.122765 0.71362,11.085281 3.79744,17.650491 9.87098,21.014451 2.53811,1.40579 2.99081,1.48555 8.43211,1.48555 5.65105,0 5.81453,-0.0324 9.5,-1.88237 10.80523,-5.42384 22.06643,-19.272106 32.0312,-39.389831 5.47065,-11.044605 7.31997,-16.7754 7.80105,-24.174335 0.46182,-7.102779 -1.29107,-12.487803 -5.62731,-17.287494 -0.92393,-1.02268 -4.55426,-3.850683 -8.06741,-6.28445 -3.51314,-2.433767 -9.76061,-6.992731 -13.88326,-10.131031 -8.77418,-6.679197 -11.37745,-8.1158105 -15.36118,-8.477042 -4.43836,-0.4024565 -8.48292,0.918607 -14.7734,4.82539 -6.81262,4.231068 -11.25749,7.665141 -16.645,12.859798 -5.75133,5.545445 -8.35553,6.123955 -9.55441,2.122459 -0.37853,-1.263435 -1.34692,-2.646343 -2.61049,-3.727912 -3.00209,-2.569676 -12.05854,-7.024866 -15.55979,-7.654413 -4.90937,-0.882735 -19.7409,-1.981436 -31.5,-2.33348 -12.86684,-0.385207 -15.34258,0.0015 -22.31295,3.485826 -8.66394,4.33082 -15.23885,9.283686 -22.22647,16.743151 -3.899035,4.162332 -8.463785,7.993739 -14.708455,12.345494 l -4.24787,2.960239 7.930535,0.25 7.930535,0.25 1.609405,1.86237 c 2.81517,3.25765 3.7327,8.520665 2.77298,15.90593 -0.74515,5.734 -2.34974,10.662185 -4.724015,14.50881 -0.97553,1.58049 -1.76328,3.177205 -1.750555,3.548255 0.01275,0.37105 1.47951,2.249635 3.25951,4.174635 3.47545,3.758545 5.95312,8.05379 5.43085,9.414815 -0.17627,0.459346 -0.49777,0.835186 -0.71445,0.835186 -0.21668,0 -2.136,-1.249856 -4.26516,-2.777461 -2.129155,-1.5276 -5.13405,-3.413665 -6.677545,-4.19125 C 89.00774,90.613264 80.09052,88.446364 80.09052,89.916954 c 0,0.271745 2.59663,3.218595 5.770295,6.548565 6.011715,6.307801 7.58273,8.271001 7.047225,8.806501 -0.174865,0.17487 -3.397545,-1.78644 -7.161505,-4.35847 -8.51017,-5.815261 -13.22744,-7.976081 -17.431015,-7.984566 -4.71183,-0.0095 -5.44181,1.39718 -2.230565,4.29835 3.08149,2.783936 8.374905,10.961226 9.49913,14.674296 0.53614,1.77075 0.885405,3.30894 0.776145,3.41821 -0.109265,0.10926 -3.308395,-2.76931 -7.109185,-6.39682 C 58.91426,99.057494 52.288935,95.115604 43.962869,93.877259 c -6.260561,-0.931145 -13.097921,0.702155 -17.979936,4.29502 -5.105055,3.757011 -11.283703,13.001831 -13.70129,20.500601 -1.067276,3.31043 -1.335549,5.29294 -1.55618,11.5 -0.293283,8.251 0.49803,18.58991 1.583479,20.68893 1.769119,3.4211 5.588795,5.77235 12.031578,7.40619 4.260037,1.08031 20.156411,1.21848 26.5,0.23033 19.21388,-2.99296 26.31421,-5.69547 31.38543,-11.94586 1.39655,-1.72128 2.75433,-3.12959 3.017295,-3.12959 0.276625,0 0.341885,0.79017 0.15485,1.875 -1.007525,5.84384 -1.00448,6.125 0.06628,6.125 1.713915,0 15.979185,-1.96997 23.876155,-3.29719 17.07532,-2.8698 23.0522,-4.64261 30.5,-9.04661 7.16554,-4.23712 16.25,-14.4675 16.25,-18.29982 0,-0.88938 -1.15244,-2.52516 -3.83193,-5.43914 -5.30313,-5.76717 -7.66807,-8.83965 -7.66807,-9.96214 0,-1.14342 1.26879,-1.27878 1.69032,-0.18032 0.56589,1.47469 7.03204,3.86063 22.81764,8.41943 16.24699,4.69205 24.37506,9.66091 27.78574,16.98601 1.90535,4.09211 1.38631,5.75838 -0.92201,2.9599 -3.4686,-4.20513 -7.04937,-6.32279 -14.2234,-8.41166 -6.55608,-1.90895 -15.70161,-3.37354 -17.2914,-2.7691 -1.90599,0.72465 -2.30902,1.8672 -3.14357,8.91171 -1.44466,12.19461 -4.42079,24.61443 -8.23814,34.37893 -4.42887,11.32876 -10.62315,18.80701 -18.9968,22.93454 -5.55654,2.73892 -9.27948,3.53739 -14.62275,3.13618 -6.69523,-0.50271 -20.885095,-5.97579 -25.4907,-9.83184 -1.036785,-0.86805 -4.183305,-4.75634 -6.99227,-8.64065 -2.808965,-3.88431 -6.402015,-8.44653 -7.98456,-10.13827 l -2.87735,-3.0759 -7.130375,2.39745 c -7.438235,2.50096 -23.03508,5.91399 -32.38038,7.08574 l -5.25,0.65827 0.07171,3.98724 c 0.07925,4.40656 1.092148,7.58786 4.735212,14.8724 5.481751,10.9611 11.702947,17.73472 20.206795,22.00109 4.133215,2.07363 6.85385,2.97363 13.223195,4.37429 6.13304,1.34869 8.15321,2.27832 13.53514,6.22855 7.20069,5.28516 13.788245,8.54341 22.283153,11.02139 12.22304,3.56549 20.35652,3.81341 33.73215,1.0282 9.31728,-1.94015 12.97156,-3.39625 21.96264,-8.75135 4.5375,-2.70254 9.43125,-5.50782 10.875,-6.23394 l 2.625,-1.32024 0,1.17862 c 0,1.2554 -4.30175,8.77774 -6.14664,10.74844 -2.13989,2.28583 -14.10846,9.9094 -16.50427,10.51268 -1.7466,0.4398 -2.34909,0.83044 -2.34909,1.52308 0,2.45533 4.44639,3.26173 17.75,3.21916 11.70537,-0.0375 16.13721,-0.44779 31.79761,-2.94402 5.93868,-0.94661 11.67,-1.72111 12.73625,-1.72111 l 1.93864,0 -1.23625,0.84184 c -0.67994,0.46302 -2.50974,2.00739 -4.06623,3.43193 -2.2503,2.05955 -3.42739,2.73205 -5.7466,3.28316 -3.00959,0.71516 -4.10771,1.97498 -2.32297,2.66505 1.89695,0.73344 13.16391,1.35012 18.89505,1.03419 3.29753,-0.18178 5.88503,-0.22313 5.75,-0.0919 -0.13503,0.13124 -2.80515,1.2657 -5.93362,2.52101 -6.39198,2.56483 -8.24532,3.61338 -7.76381,4.39249 0.43777,0.70832 5.15699,2.79331 9.20193,4.06548 2.85503,0.89793 4.89062,1.0458 16.75,1.21678 7.425,0.10705 14.7375,0.006 16.25,-0.22497 l 2.75,-0.41961 -0.14938,-2.3514 c -0.17478,-2.75129 0.0424,-2.75216 4.22489,-0.0169 3.16827,2.07201 3.92999,3.61946 4.62845,9.40282 0.76343,6.32134 2.37476,11.9383 6.8131,23.75 2.11835,5.6375 4.82794,13.13758 6.02133,16.66684 1.7971,5.31465 2.64173,7.033 4.91733,10.004 1.51114,1.97293 3.57263,5.38534 4.5811,7.58315 2.16577,4.71999 2.54195,5.24601 3.75174,5.24601 0.66524,0 1.00865,-0.51349 1.25398,-1.875 l 0,1e-5 z m 14.91806,-29.375 c 0.74489,-1.925 2.86967,-6.3125 4.72174,-9.75 3.42936,-6.36501 5.10095,-10.17148 6.03824,-13.75 0.67301,-2.56954 0.68363,-10.77929 0.0162,-12.53474 -0.49338,-1.29769 -0.61736,-1.3376 -3.20883,-1.03302 -2.61017,0.30677 -9.03055,2.35191 -13.90296,4.42863 l -2.375,1.01227 0.002,2.56343 c 0.002,4.4471 4.20543,29.16187 5.5698,32.75043 0.40106,1.05488 0.56644,1.13182 1.12758,0.52459 0.36166,-0.39137 1.26703,-2.28659 2.01192,-4.21159 l -1.9e-4,0 z m 20.42173,-6.48253 c 1.58528,-2.59797 3.75662,-5.73376 4.82521,-6.96841 2.37286,-2.74163 3.01866,-4.67251 7.29086,-21.79906 3.4869,-13.9784 4.09261,-18.09123 2.70657,-18.37802 -0.91075,-0.18845 -10.48051,5.99705 -12.64997,8.17642 -1.99423,2.00333 -2.6033,3.69749 -3.30809,9.2016 -0.75581,5.90258 -2.30384,11.3699 -5.59207,19.75 -2.56296,6.53175 -3.53895,10.75 -2.48727,10.75 0.3012,0 1.34357,-0.69884 2.31638,-1.55298 2.5423,-2.23218 3.26605,-1.72532 3.26605,2.28729 0,1.79613 0.16875,3.26367 0.375,3.26121 0.20625,-0.002 1.67204,-2.13008 3.25733,-4.72805 z m 90.1722,-93.30117 c 2.1604,-1.3352 6.89154,-6.56593 7.94302,-8.78177 0.44941,-0.94705 0.74631,-2.21975 0.65978,-2.82822 -0.14339,-1.00825 -0.40109,-0.87937 -2.90733,1.45395 -3.19819,2.97752 -5.35276,4.18974 -7.44682,4.18974 -1.73667,0 -3.05318,-1.52271 -3.05318,-3.53139 0,-2.35206 2.79472,-7.12894 5.2448,-8.96472 3.93302,-2.94689 4.80967,-5.50389 1.88696,-5.50389 -3.22274,0 -8.00725,5.35638 -9.91501,11.10012 -1.06642,3.21066 -0.75689,7.88095 0.7133,10.76277 1.69587,3.32417 3.83849,3.97975 6.87448,2.10341 z m 2.22366,-12.57773 c 0.8095,-0.88629 1.47181,-2.01129 1.47181,-2.5 0,-1.57978 -1.45172,-0.94337 -2.48984,1.09151 -1.71056,3.35296 -1.28974,3.93517 1.01803,1.40849 z M 126.0314,180.90859 c 8.21695,-2.21717 11.90187,-5.87547 11.38673,-11.30445 -0.29069,-3.0635 -1.18544,-4.93476 -3.39031,-7.09043 -3.19291,-3.12166 -5.72221,-3.00447 -10.31445,0.47793 l -2.12716,1.61307 -3.62284,-0.84733 c -4.40184,-1.02951 -10.2989,-1.08774 -12.60438,-0.12444 -1.30963,0.54719 -1.82138,1.14928 -2.23115,2.625 -1.20429,4.33693 -0.37249,9.86085 1.85557,12.32283 3.39651,3.7531 12.16986,4.7234 21.04799,2.32782 z m 310.80912,-5.93358 c 1.1,-0.2814 2.84375,-0.64344 3.875,-0.80454 2.40049,-0.375 2.38093,-0.93773 -0.058,-1.66845 -2.82262,-0.84568 -6.83556,-0.73915 -7.78128,0.20657 -0.9318,0.9318 -0.93878,0.994 -0.25526,2.27119 0.3183,0.59475 0.86823,0.89431 1.375,0.74901 0.46451,-0.13319 1.74455,-0.47239 2.84455,-0.75378 z m -20.66437,-0.37963 c 1.23264,-1.11552 1.193,-2.6725 -0.068,-2.6725 -1.0161,0 -2.01759,1.34872 -2.01759,2.71713 0,1.01789 0.93363,0.99792 2.08563,-0.0446 l 0,-3e-5 z m 9.41437,-2.8646 c 0,-1.90119 -3.8511,-9.07357 -5.78238,-10.76927 -1.44247,-1.2665 -1.94223,-1.45361 -2.74088,-1.02619 -1.1061,0.59197 -1.28612,2.41624 -0.35174,3.56446 0.34375,0.42242 1.32557,1.2464 2.18183,1.83107 0.85625,0.58467 2.51393,2.53206 3.68372,4.32753 2.26608,3.47811 3.00945,3.99001 3.00945,2.0724 z m -327.558735,-5.4329 c 1.083415,-2.26875 2.127995,-4.89166 2.321295,-5.82868 l 0.35146,-1.70369 -6.18201,0.33242 c -3.400105,0.18284 -6.797805,0.46891 -7.550445,0.63572 l -1.368435,0.30329 0.984925,1.38321 c 1.853525,2.60303 8.0999,9.00273 8.787045,9.00273 0.377475,0 1.57275,-1.85625 2.656165,-4.125 z m 48.997405,-4.16211 c 1.57861,-3.93483 3.04662,-11.20464 3.05476,-15.12762 l 0.007,-3.16473 -1.625,0.34432 c -2.2244,0.47131 -22.36245,7.9865 -26.375,9.8427 -1.7875,0.8269 -2.94908,1.61629 -2.58128,1.75419 0.36779,0.1379 3.06779,-0.3729 6,-1.13511 6.12239,-1.59147 7.69181,-1.48365 11.24999,0.77287 1.69501,1.07495 3.11262,2.67682 5.11283,5.77739 1.52215,2.35954 3.03776,4.20205 3.36801,4.09448 0.33024,-0.10758 1.13535,-1.52889 1.78912,-3.15849 l 2e-5,0 z M 59.44699,89.397989 c 0.82813,-0.288685 1.764675,-1.09329 2.08121,-1.788005 1.181035,-2.59209 2.16947,-10.57626 2.23458,-18.04996 0.05622,-6.4532 -0.05879,-7.73796 -0.75499,-8.43416 -0.45172,-0.45172 -1.064845,-0.670795 -1.3625,-0.486835 -0.29766,0.183965 -2.04044,2.516835 -3.87285,5.184165 -2.126125,3.094875 -5.496255,6.959355 -9.313865,10.680075 -3.863197,3.76515 -5.848845,6.046185 -5.605698,6.439605 0.436077,0.705585 8.485713,4.59631 12.352473,5.970465 1.449345,0.51506 2.657845,0.952915 2.68556,0.973005 0.0277,0.0201 0.72795,-0.199665 1.55608,-0.488355 z M 23.455622,82.308794 c 7.386615,-2.64462 13.165894,-7.22132 20.375826,-16.135915 9.960697,-12.31573 20.210157,-30.086693 23.965622,-41.552628 1.556185,-4.751239 2.453575,-6.215804 3.29866,-5.383504 1.852955,1.824931 1.523765,7.657164 -1.181715,20.936132 -1.861435,9.136266 -2.426575,13.25 -1.82026,13.25 0.209225,0 1.231295,-0.95625 2.271275,-2.125 2.926895,-3.289298 6.757125,-6.398852 14.061365,-11.415647 7.13126,-4.897989 8.664125,-6.367618 8.664125,-8.306713 0,-1.822034 -4.371455,-6.127828 -10.359275,-10.20368 -9.75842,-6.642459 -17.655735,-9.438853 -26.674975,-9.445457 -6.64055,-0.0049 -9.090177,0.814382 -12.271099,4.103905 -1.405441,1.453426 -3.280781,3.723378 -4.167422,5.044338 -2.800865,4.172866 -6.842632,13.271717 -10.260389,23.098254 -4.363195,12.544805 -6.746394,17.23398 -12.853206,25.289915 -5.238092,6.909945 -6.883871,9.77676 -6.902653,12.023865 -0.013735,1.643445 0.759608,2.301645 2.991026,2.54569 3.12267,0.34152 6.66498,-0.22051 10.863095,-1.723555 z m 50.608118,-3.60741 c 0.657435,-0.699805 1.75884,-3.277665 2.578875,-6.03589 1.70005,-5.718235 3.200345,-8.833085 6.357545,-13.19926 1.2872,-1.7801 2.526885,-3.54236 2.754855,-3.91613 0.715395,-1.172925 -0.63026,-2.127225 -2.99959,-2.127225 -3.588375,0 -5.519075,2.74151 -8.80466,12.502245 -2.329685,6.920955 -3.48728,12.492225 -2.774165,13.351475 0.79209,0.95441 1.60166,0.793115 2.88714,-0.575215 z m 17.92678,-1.878505 c 0.9713,-0.9713 0.692815,-2.224175 -0.69677,-3.134665 -1.50471,-0.985925 -2.842655,-3.813215 -3.733895,-7.890335 -0.345655,-1.58125 -0.787535,-2.875 -0.981955,-2.875 -0.793415,0 -3.648645,7.33445 -3.69216,9.48433 -0.04055,2.004685 0.108955,2.31035 1.45478,2.9739 1.439055,0.709525 5.429715,1.93762 6.525,2.008025 0.28875,0.01855 0.795,-0.236255 1.125,-0.566255 z m 4.1,-13.37049 c 0,-0.186149 -0.0042,-0.370272 -0.01222,-0.549866 -0.05037,-1.131328 -0.250456,-2.082968 -0.487781,-2.229644 -0.310429,-0.191856 -0.5,0.74481 -0.5,2.47049 0,1.52873 0.225,2.77951 0.5,2.77951 0.275,0 0.5,-1.11172 0.5,-2.47049 z"
       id="path3003"
       inkscape:connector-curvature="0"
       sodipodi:nodetypes="csscssssssssssssssssssscsssssssssssssssssssssssssssscssscssssssssssssscsssssssccssssssssssssssssssssscssssssssscccsssssssssccsccccssssscsssssssssssssssscsssssssssssssssssssssscsssssssssssssssssssscccssscssssssscsssscsssssssssssssssssssssssssssssscsscssssssssscssssssscssssscssssccssssssssccccsssssccssccccsssssssssccccsssssssssccsssscssscsssscccssssccccssccccsssssccsscsscssscccsssssscccccsssssssscccsssssssssssssssssscssssssccsssscscsssssss"
       transform="translate(98.0621,56.70425)" />
    <path
       style="fill:#000000;fill-opacity:1;fill-rule:evenodd;stroke:none"
       d="m 181.09052,83.436362 c -2.0625,-1.078927 -5.4375,-2.530323 -7.5,-3.225324 -7.50846,-2.530127 -10.89816,-2.874735 -30.89422,-3.140806 l -18.64423,-0.248083 3.377,-2.324635 c 4.2147,-2.901288 5.98431,-5.240146 11.16377,-14.754929 6.97093,-12.805751 9.65614,-15.806705 15.06075,-16.831668 4.72764,-0.896577 15.99243,1.735398 19.02518,4.44516 1.51744,1.355835 1.52682,1.393944 0.72454,2.945375 -1.06318,2.055976 -1.02343,4.270951 0.18872,10.514156 0.54917,2.828501 0.99849,6.12509 0.99849,7.325754 0,2.469118 0.4373,2.935416 6.87784,7.333946 3.99877,2.730934 6.17804,5.515884 6.29545,8.045144 0.0695,1.497184 -0.0642,1.663004 -1.42329,1.765011 -0.94507,0.07093 -2.88733,-0.613151 -5.25,-1.849101 l 0,0 z M 168.07293,69.455749 c 0.28467,-0.531921 0.51759,-1.46136 0.51759,-2.065421 0,-0.994324 -0.17749,-1.067131 -1.875,-0.769115 -5.9585,1.046077 -6.2633,1.018247 -8.63161,-0.78812 -3.52559,-2.689059 -4.4922,-4.484541 -4.50022,-8.359156 -0.009,-4.43016 -0.35404,-5.551058 -1.70794,-5.551058 -1.87937,0 -5.26686,4.319742 -8.29029,10.57183 -3.41565,7.063115 -2.93382,7.741244 5.01469,7.057662 4.96136,-0.426684 15.78442,-0.0021 16.4311,0.644569 0.60006,0.600064 2.58238,0.117016 3.04168,-0.741191 l 0,0 z m -2.50054,-9.511087 c 1.07338,-0.678902 0.10135,-3.050978 -1.6417,-4.006316 -1.29525,-0.709905 -1.44902,-0.695017 -2.1184,0.205098 -0.39697,0.53381 -0.72177,1.361489 -0.72177,1.839285 0,1.929966 2.67857,3.102506 4.48187,1.961933 z"
       id="path3005"
       inkscape:connector-curvature="0"
       transform="translate(98.0621,56.70425)" />
    <path
       style="fill:#000000;fill-opacity:1;fill-rule:evenodd;stroke:none"
       d="m 164.57253,31.942718 c -0.42239,-0.247364 -4.20867,-1.031308 -8.41395,-1.742099 -7.6065,-1.285676 -10.8021,-2.325633 -10.44433,-3.398944 0.3217,-0.965086 3.60161,-2.380387 6.83734,-2.950349 6.23025,-1.097437 13.58346,1.572206 15.09205,5.47929 0.86305,2.235206 -1.00361,3.82288 -3.07111,2.612102 z"
       id="path3007"
       inkscape:connector-curvature="0"
       transform="translate(98.0621,56.70425)" />
    <path
       style="fill:#000000;fill-opacity:1;fill-rule:evenodd;stroke:none"
       d="m 222.35418,194.3734 c 5.71472,-6.13955 14.13815,-18.43366 17.26045,-25.19185 2.65452,-5.7457 7.07869,-19.20838 8.6887,-26.43959 1.52232,-6.83737 2.50571,-9.4945 3.40508,-9.20056 2.80922,0.91813 2.31739,16.8235 -0.90354,29.22021 -1.6309,6.277 -4.25846,12.99663 -6.37708,16.30858 -3.53411,5.52469 -17.69939,16.34998 -23.08727,17.64358 -1.46685,0.35219 -1.44445,0.30047 1.01366,-2.34037 z"
       id="path3009"
       inkscape:connector-curvature="0"
       transform="translate(98.0621,56.70425)" />
    <path
       style="fill:#000000;fill-opacity:1;fill-rule:evenodd;stroke:none"
       d="m 18.789731,125.16554 c -1.171751,-1.78832 -0.788857,-8.89066 0.60827,-11.28287 1.21806,-2.08561 3.130871,-2.87621 4.951647,-2.04661 1.588369,0.72371 3.364305,4.49272 3.146356,6.67742 -0.156655,1.57029 -0.419772,1.82114 -3.155484,3.00841 -0.965978,0.41923 -1.851408,1.40752 -2.48706,2.77599 -1.131285,2.4355 -1.894768,2.65172 -3.063729,0.86766 z"
       id="path3011"
       inkscape:connector-curvature="0"
       transform="translate(98.0621,56.70425)" />
    <path
       style="fill:#000000;fill-opacity:1;fill-rule:evenodd;stroke:none"
       d="m 59.10885,125.33348 c -0.270971,-0.63833 -0.706835,-2.80503 -0.968586,-4.81489 -0.671449,-5.15573 -1.939004,-6.33772 -4.198619,-3.9152 -1.529144,1.63939 -3.061681,2.0375 -4.047688,1.0515 -2.999876,-2.99988 0.419124,-10.25226 4.89302,-10.37908 2.480643,-0.0703 4.267557,1.37364 6.028227,4.87122 1.217877,2.41933 1.504907,3.67798 1.648231,7.22766 0.184376,4.56644 -0.415839,6.64832 -2.004971,6.95436 -0.519935,0.10013 -1.050692,-0.29139 -1.349614,-0.99557 l 0,0 z"
       id="path3013"
       inkscape:connector-curvature="0"
       transform="translate(98.0621,56.70425)" />
    <path
       style="fill:#000000;fill-opacity:1;fill-rule:evenodd;stroke:none"
       d="m 112.59052,208.08386 c -5.94251,-0.9643 -17,-6.15314 -17,-7.97742 0,-0.87294 1.380924,-0.85262 5.75,0.0846 7.42076,1.59183 15.85019,2.69285 24.5,3.2001 11.72266,0.68746 15.25,1.02954 15.25,1.47895 0,0.88781 -4.10241,2.18223 -8.97012,2.83032 -4.82983,0.64305 -16.51616,0.87251 -19.52988,0.38347 z"
       id="path3015"
       inkscape:connector-curvature="0"
       transform="translate(98.0621,56.70425)" />
    <path
       style="fill:#f07878;fill-opacity:1;fill-rule:evenodd;stroke:none"
       d="m 440.09335,302.95425 c -6.02014,3.29148 -13.47679,6.62016 -16.25,13.34375 -1.14699,9.14022 -2.85965,18.13238 -7,26.5 -0.77713,3.42377 -4.87752,8.87168 -1,11.5625 2.46959,1.02886 5.34948,-5.10243 4.65625,-0.59375 -1.49946,3.24618 2.6368,6.472 4.34375,2.78125 2.35435,-5.2827 6.57921,-9.28226 9.5,-14.0625 3.57938,-11.02698 6.10342,-22.61289 8.75,-33.9375 0.46421,-2.21446 0.1875,-6.07546 -3,-5.59375 z m -3.5625,8.46875 c -1.85879,11.69712 -4.46522,23.80279 -10.46875,34 -0.83196,2.15451 -3.36947,3.58036 -3.6875,0.5 0.82192,-7.67355 4.72817,-14.83454 5.03125,-22.65625 1.96703,-4.90002 5.22633,-9.26105 9.15625,-12.625 l -0.0312,0.78125 z"
       id="path3787"
       inkscape:connector-curvature="0" />
    <path
       style="fill:#f07878;fill-opacity:1;fill-rule:evenodd;stroke:none"
       d="m 517.34335,233.298 c -8.71842,3.25676 -13.87706,15.0246 -9.84375,23.625 1.49043,4.37438 7.10409,5.92028 10.21875,2.21875 3.45732,-3.25544 8.81045,-7.4066 8.125,-12.65625 -3.08614,-3.59777 -6.00075,2.99598 -9.25,3.96875 -2.27281,1.6377 -4.92733,0.0762 -3.5625,-2.6875 0.54097,-5.7836 8.29693,-7.06393 8.46875,-12.6875 -0.69988,-1.65154 -2.54151,-2.08982 -4.15625,-1.78125 z"
       id="path3789"
       inkscape:connector-curvature="0" />
    <path
       style="fill:#f07878;fill-opacity:1;fill-rule:evenodd;stroke:none"
       d=""
       id="path3791"
       inkscape:connector-curvature="0"
       transform="translate(98.0621,56.70425)" />
    <path
       style="fill:#f07878;fill-opacity:1;fill-rule:evenodd;stroke:none"
       d="m 515.1246,214.95425 c -4.29457,1.4873 -2.17862,7.36716 1.3125,8.5625 3.07833,1.58445 4.51653,10.53292 8.75,6.5 0.22654,-4.97174 -3.34686,-9.83113 -6.375,-13.65625 -0.96638,-0.91918 -2.28811,-1.7096 -3.6875,-1.40625 z"
       id="path3793"
       inkscape:connector-curvature="0" />
    <path
       sodipodi:type="inkscape:offset"
       inkscape:radius="0"
       inkscape:original="M 535.96875 227.0625 C 534.40419 226.91278 532.834 226.93846 531.34375 227.09375 C 526.83105 228.55971 530.10394 236.79248 534.25 233.46875 C 536.95376 233.14068 543.77907 232.10951 540.5 228.125 C 539.09224 227.53734 537.53331 227.21222 535.96875 227.0625 z "
       xlink:href="#path3795"
       style="fill:#f07878;fill-opacity:1;fill-rule:evenodd;stroke:none"
       id="path3797"
       inkscape:href="#path3795"
       d="m 534.71875,228.96875 c -1.3048,-0.0455 -2.48386,0.082 -3.03125,0.375 -0.82503,0.44155 -1.0573,2.33173 -0.3125,2.59375 0.24307,0.0855 0.85761,-9.4e-4 1.34375,-0.1875 0.48613,-0.18656 2.37143,-0.63446 4.21875,-0.96875 l 3.375,-0.59375 -1.84375,-0.625 c -1.0399,-0.34831 -2.4452,-0.54825 -3.75,-0.59375 z" />
    <path
       style="fill:#f07878;fill-opacity:1;fill-rule:evenodd;stroke:none"
       d="m 531.34375,227.09375 c -4.5127,1.46596 -1.23981,9.69873 2.90625,6.375 2.70376,-0.32807 9.52907,-1.35924 6.25,-5.34375 -2.81552,-1.17532 -6.17576,-1.34183 -9.15625,-1.03125 z"
       id="path3795"
       inkscape:connector-curvature="0" />
    <path
       style="fill:#000000;fill-opacity:1;fill-rule:evenodd;stroke:none"
       d="m 218.34335,209.51675 c -3.67043,0.57791 -3.63219,5.93963 0.40625,4.875 5.59444,-1.11438 11.70999,-2.32764 2.65625,-4.40625 -0.98292,-0.2092 -2.12592,-1.29321 -3.0625,-0.46875 z"
       id="path3865"
       inkscape:connector-curvature="0" />
    <path
       style="fill:#ffffff;fill-opacity:1;fill-rule:evenodd;stroke:none"
       d="m 182.40625,123.9375 c -3.69233,4.29272 1.09634,12.01524 6.5,9.28125 1.89713,-3.40654 -3.20319,-5.30235 -2.90625,-8.84375 -1.62635,-4.87128 -0.74402,-5.014 -3.59375,-0.4375 z"
       id="path3794"
       inkscape:connector-curvature="0" />
    <path
       style="fill:#ffffff;fill-opacity:1;fill-rule:evenodd;stroke:none"
       d="m 249.78125,108.84375 c -5.59587,3.44705 -8.64165,10.42138 -9.84375,16.5 4.10757,2.66644 10.00896,-0.35031 14.75,0.75 3.54189,-0.3825 8.15859,1.79473 11.21875,0.0625 1.97538,-2.72338 -0.44717,-3.45718 -3.0625,-2.375 -6.56379,1.80927 -12.2813,-4.66257 -11.3125,-10.96875 -0.21099,-1.27327 0.20722,-4.10826 -1.75,-3.96875 z"
       id="path3796"
       inkscape:connector-curvature="0" />
    <path
       style="fill:#fafafa;fill-opacity:1;fill-rule:evenodd;stroke:none"
       d="m 260.5625,112.375 c -3.10717,1.70694 0.53684,6.58486 3,4.03125 1.12095,-2.03314 -1.1998,-3.97818 -3,-4.03125 z"
       id="path3798"
       inkscape:connector-curvature="0" />
    <path
       style="fill:#fafafa;fill-opacity:1;fill-rule:evenodd;stroke:none"
       d="m 165.24123,70.172548 c -0.14584,-0.09425 -0.60084,-0.172582 -1.01111,-0.17407 -0.41027,-0.0014 -1.60352,-0.134633 -2.65165,-0.295878 -2.20993,-0.339976 -9.361,-0.423143 -14.28686,-0.166158 -3.49681,0.182432 -4.54638,0.07648 -5.14193,-0.519067 -0.87408,-0.874078 -0.36324,-2.695032 2.1555,-7.683662 2.6217,-5.192524 5.48749,-8.789008 7.37662,-9.257435 0.40097,-0.09943 0.59005,-0.02683 1.00132,0.384441 0.58632,0.586314 0.61939,0.777381 0.86254,4.983907 0.19484,3.370742 0.46341,4.288818 1.72472,5.895857 0.85219,1.085774 3.03539,2.909326 4.20114,3.509062 1.08646,0.558945 2.9362,0.613461 5.4099,0.159441 1.11466,-0.204584 2.37713,-0.371972 2.80547,-0.371972 l 0.77882,0 -0.0759,1.016466 c -0.0418,0.559056 -0.19144,1.254803 -0.33266,1.546104 -0.42426,0.875175 -2.08129,1.447715 -2.81592,0.972964 z"
       id="path3816"
       inkscape:connector-curvature="0"
       transform="translate(98.0621,56.70425)" />
    <path
       style="fill:#fafafa;fill-opacity:1;fill-rule:evenodd;stroke:none"
       d="m 162.96893,60.149843 c -0.44913,-0.178805 -1.24738,-1.149286 -1.4498,-1.762603 -0.42144,-1.277 0.44223,-2.870926 1.4144,-2.610285 0.24835,0.06658 0.55485,0.124334 0.6811,0.128334 0.12626,0.004 0.57812,0.314087 1.00413,0.689083 1.22238,1.075982 1.44711,2.350416 0.57855,3.280934 -0.2857,0.30608 -0.55768,0.394531 -1.18013,0.383791 -0.44488,-0.0077 -0.9166,-0.05684 -1.04825,-0.109254 z"
       id="path3818"
       inkscape:connector-curvature="0"
       transform="translate(98.0621,56.70425)" />
    <path
       style="fill:#fafafa;fill-opacity:1;fill-rule:evenodd;stroke:none"
       d="m 90.07056,77.14411 c -0.05473,-0.05473 -0.679952,-0.139834 -1.389386,-0.189125 -1.310403,-0.09105 -1.449742,-0.143241 -3.895772,-1.459318 -1.748665,-0.940862 -1.833437,-1.137267 -1.665804,-3.859442 0.120032,-1.949192 0.408732,-3.159212 0.897525,-3.761774 0.118305,-0.145841 0.550949,-1.020885 0.961432,-1.944544 0.410482,-0.923658 0.911084,-1.948636 1.112447,-2.277729 0.323233,-0.528269 0.390841,-0.564535 0.57723,-0.309632 0.116114,0.158795 0.512052,1.422422 0.879862,2.808059 1.170669,4.410217 1.94826,5.964805 3.918114,7.833231 0.816207,0.774181 0.943029,0.984549 0.943029,1.56426 0,0.868527 -0.813868,1.69552 -1.668611,1.69552 -0.313808,0 -0.615338,-0.04478 -0.670066,-0.09951 z"
       id="path3820"
       inkscape:connector-curvature="0"
       transform="translate(98.0621,56.70425)" />
  </g>
  <g
     inkscape:groupmode="layer"
     id="layer2"
     inkscape:label="Ebene" />
</svg>
