<?xml version="1.0" encoding="UTF-8" standalone="no"?>
<!-- Created with Inkscape (http://www.inkscape.org/) -->
<svg
   xmlns:dc="http://purl.org/dc/elements/1.1/"
   xmlns:cc="http://web.resource.org/cc/"
   xmlns:rdf="http://www.w3.org/1999/02/22-rdf-syntax-ns#"
   xmlns:svg="http://www.w3.org/2000/svg"
   xmlns="http://www.w3.org/2000/svg"
   xmlns:sodipodi="http://sodipodi.sourceforge.net/DTD/sodipodi-0.dtd"
   xmlns:inkscape="http://www.inkscape.org/namespaces/inkscape"
   width="352.67197"
   height="226.70265"
   id="svg1911"
   sodipodi:version="0.32"
   inkscape:version="0.44.1"
   version="1.0"
   sodipodi:docbase="/home/moni"
   sodipodi:docname="pig2.svg">
  <defs
     id="defs1913" />
  <sodipodi:namedview
     id="base"
     pagecolor="#ffffff"
     bordercolor="#666666"
     borderopacity="1.0"
     gridtolerance="10000"
     guidetolerance="10"
     objecttolerance="10"
     inkscape:pageopacity="0.0"
     inkscape:pageshadow="2"
     inkscape:zoom="1.8471179"
     inkscape:cx="177.16537"
     inkscape:cy="114.23202"
     inkscape:document-units="px"
     inkscape:current-layer="layer1"
     inkscape:window-width="896"
     inkscape:window-height="614"
     inkscape:window-x="0"
     inkscape:window-y="0" />
  <metadata
     id="metadata1916">
    <rdf:RDF>
      <cc:Work
         rdf:about="">
        <dc:format>image/svg+xml</dc:format>
        <dc:type
           rdf:resource="http://purl.org/dc/dcmitype/StillImage" />
      </cc:Work>
    </rdf:RDF>
  </metadata>
  <g
     inkscape:label="Layer 1"
     inkscape:groupmode="layer"
     id="layer1"
     transform="translate(-242.8773,-137.4068)">
    <path
       style="opacity:1;fill:#00000f;fill-opacity:0.94117647;stroke:none;stroke-width:1.01774585;stroke-miterlimit:4;stroke-dasharray:none;stroke-opacity:1"
       d="M 503.29794,230.7662 C 503.42394,229.66485 504.30676,226.8602 505.19949,225.6987 C 506.61746,223.85387 509.92675,223.11667 510.25932,221.35208 C 510.91115,217.89343 501.18319,223.34199 500.3252,226.48599 C 499.46921,229.62256 499.54289,232.80814 499.57891,234.53488 C 499.68613,239.6737 503.09988,232.49754 503.29794,230.7662 z M 583.05093,201.17829 C 587.24571,202.95663 591.09548,204.83088 591.99666,207.58772 C 593.11414,211.00615 592.84766,212.61079 590.45267,216.55108 C 586.61766,222.86049 582.614,224.16516 576.5166,221.09327 C 574.74718,220.20184 572.72166,219.7752 571.18454,219.87605 C 568.79462,220.03286 563.24146,221.86375 559.53347,223.7277 C 556.76843,225.11767 551.66089,225.02282 549.08068,223.51733 C 547.43554,222.55747 546.77505,221.56746 546.40885,219.45894 C 545.97976,216.98837 546.13496,216.28979 547.90939,213.35924 C 550.17938,209.61024 552.62848,207.40194 555.98143,206.06812 C 557.24845,205.56411 558.07074,204.52965 558.14362,203.91781 C 558.44181,201.41452 560.89377,198.05459 564.44719,197.47104 C 566.32785,197.16219 567.84261,196.76361 570.65139,196.49268 C 572.58056,196.41943 576.85455,196.48817 578.35086,197.69859 C 579.63687,198.73884 580.46791,200.08322 583.05093,201.17829 z M 581.01857,203.7045 C 579.81812,201.70392 577.62765,201.34439 576.54629,201.48297 C 573.66146,201.85278 574.16318,203.10301 574.30607,206.16559 C 574.37535,207.6505 574.25898,210.31768 574.01453,212.11149 C 573.66369,214.68629 573.83146,215.58656 574.82496,216.30302 C 576.82813,217.74761 577.10195,216.54545 580.36328,216.38448 C 583.62463,216.22348 584.03167,212.92943 583.51262,210.77248 C 582.9936,208.61552 582.3676,205.95265 581.01857,203.7045 z M 558.17693,193.31215 C 554.74348,192.64712 552.13166,192.15515 549.71048,191.24235 L 545.32279,189.59398 L 544.93279,186.37079 C 544.64959,183.94902 544.89735,182.40389 545.88973,179.83675 C 547.00032,176.96388 548.00057,175.81826 552.79578,172.33854 C 554.95221,170.77368 556.43323,169.5035 557.49787,168.34908 C 557.59214,168.30452 557.67449,168.20844 557.76116,168.13788 C 557.79325,168.10123 557.80304,168.0614 557.83415,168.02493 C 557.94833,167.91607 558.035,167.82393 558.11177,167.69344 C 559.54676,165.84924 559.77225,164.17357 559.29753,161.73743 C 559.02587,160.34346 557.72941,157.45584 555.90211,155.75708 C 552.85489,152.92421 551.71482,152.26151 545.31592,149.66967 L 545.55771,149.63891 L 544.91248,149.55809 C 544.06944,149.27606 543.48611,149.03892 542.45465,148.70087 C 540.85832,148.17764 538.7523,146.77405 537.49784,145.33301 C 533.88,141.17703 531.66999,139.98206 525.4667,138.8815 C 524.83514,138.76945 524.01926,138.67698 523.06171,138.58028 C 516.35891,137.90342 503.00769,137.63961 502.20044,138.28717 C 501.26386,139.03847 502.63889,140.83116 504.31166,141.05446 C 506.94402,141.40579 511.46335,144.36122 512.15391,146.18773 C 512.99707,148.41777 511.54801,152.79951 508.90436,155.97526 C 504.60813,161.13628 504.62696,161.11378 492.69495,160.11063 C 483.08685,159.30284 481.69944,159.34438 478.95282,160.52604 L 475.87796,161.85019 L 473.13132,159.91901 C 470.68767,158.18315 464.25634,154.29928 462.27182,153.26684 C 460.30424,152.24324 456.61453,150.76444 454.43151,150.47151 C 453.52445,150.3498 450.32785,149.65415 447.33733,149.31775 C 442.52813,148.77548 441.23543,148.74997 435.33673,148.34831 C 430.60943,148.02644 425.8167,148.61447 424.62914,148.77752 C 423.05943,148.99304 420.99418,149.03357 418.42973,149.34406 C 416.30331,149.60151 414.58842,149.91226 413.12586,150.38903 C 411.20977,151.01363 410.06533,151.35833 407.52555,152.92299 C 402.99811,155.71215 396.39011,159.37926 396.79507,161.04101 C 397.55639,164.1651 404.63125,166.65623 419.65648,169.03212 C 427.71389,170.30622 434.69588,174.49229 431.82196,176.35508 C 430.37984,177.28981 419.46199,178.33537 413.21655,178.11483 C 407.00433,177.89545 398.71828,178.54529 390.67523,179.93102 C 384.6045,180.97693 370.42904,186.26884 365.38407,189.33865 C 360.06606,192.57464 348.63958,202.32222 342.52468,208.81807 C 339.9255,211.57915 333.63014,221.37757 331.40901,226.16671 C 328.43901,232.57055 327.95631,234.00376 327.0015,238.6783 C 326.45912,241.33361 325.55458,244.75469 325.02855,246.24498 C 324.50247,247.73522 323.58579,252.17616 322.95931,256.11927 C 322.33284,260.06241 321.54629,263.77718 321.02354,263.87372 C 309.19591,266.05835 315.6359,262.84127 315.91708,261.49799 C 316.27841,259.77167 319.49328,254.75718 317.5161,248.69457 C 316.43281,245.37288 312.2123,240.6164 308.37058,239.15291 C 304.8209,237.80067 302.50986,238.15373 300.43966,238.15959 C 295.31942,238.17405 291.07331,242.42883 288.2914,247.91382 C 285.6764,253.0698 286.62208,259.41739 289.83838,264.44801 C 291.72709,267.40206 291.87184,269.06984 289.93868,269.44242 C 289.18387,269.58791 285.50689,270.45248 282.1977,269.61727 C 277.54713,268.44351 275.59992,267.7957 273.50455,266.46842 C 272.0028,265.51719 269.35803,263.28246 268.45752,262.18066 C 266.14596,259.35243 264.60483,257.71197 263.51305,255.38876 C 262.35783,252.93061 261.55323,250.06312 260.11491,248.06842 C 258.08383,245.25167 254.64226,241.83645 254.34225,241.59179 C 254.29341,241.55194 248.64997,237.39204 247.49099,236.96094 C 243.62304,235.5222 243.55812,235.49238 243.41491,236.69461 C 243.1636,238.80445 244.60706,248.22025 245.9681,250.93599 C 246.7455,252.48722 252.11627,263.02594 256.15948,266.69011 C 258.28144,268.61314 261.1752,270.89796 262.43319,272.02424 C 263.69119,273.15053 267.77615,275.3661 270.5156,276.56714 C 275.76504,278.86859 289.48386,282.56733 298.27121,276.95683 C 300.27039,275.6804 301.40394,276.12853 306.64928,276.6849 C 310.39594,277.0823 314.09872,277.7463 314.81127,278.13448 C 315.52384,278.52267 318.38165,278.79128 319.22652,279.45932 C 321.24016,281.05153 322.19642,282.75534 325.2758,293.64689 C 326.84251,299.18817 333.0103,310.89794 337.41833,316.65556 C 342.57929,323.39657 343.7572,324.51576 347.0969,325.86465 C 352.17455,327.91546 358.29966,330.0395 362.18858,331.11232 C 371.9524,333.80581 374.78973,335.01943 379.97674,338.7122 L 385.35267,342.55985 L 393.15419,343.53697 C 403.46629,344.82852 404.94338,345.79912 407.31807,352.57531 C 408.2826,355.32759 409.3892,357.59622 409.75078,357.64151 C 410.11234,357.68679 411.61925,357.43524 413.09161,357.08323 C 420.84561,355.22928 438.66905,357.96535 444.08012,361.81907 L 446.60643,363.60056 L 448.01023,362.3113 C 448.96118,361.41151 449.49577,359.83556 449.82821,357.04495 C 450.25495,353.46257 450.49299,352.96754 452.10249,352.44619 C 453.39218,352.02843 453.95937,351.35122 454.12598,349.9526 C 454.16378,349.63526 454.00259,349.16686 453.80718,348.63072 C 453.87474,347.7021 453.82289,347.5271 453.52689,347.98516 C 452.11656,344.83176 448.06595,339.41477 444.30107,335.47528 C 442.61939,333.71563 441.0528,332.21067 439.78219,331.42974 C 437.05034,329.75078 436.48847,329.20573 437.45916,328.94117 C 438.2383,328.72883 440.11779,329.47536 442.33897,330.95639 C 445.8065,333.26843 445.96555,333.32067 448.34628,332.50236 C 449.69856,332.03757 451.83911,331.77999 453.11639,331.93996 C 454.39369,332.09993 457.02479,332.11585 458.95088,331.93816 C 463.35699,331.53174 468.66027,333.21359 473.79942,336.72807 C 475.80663,338.1007 477.64872,339.2857 477.89652,339.31675 C 478.14432,339.34777 478.40314,337.15874 478.53553,334.45213 L 478.82259,329.54344 L 481.69683,329.90342 C 483.5966,330.14135 485.22292,329.80615 486.38546,329.02558 L 488.13402,327.84054 L 483.47812,321.94649 C 480.7535,318.48137 478.89012,315.48279 478.98703,314.66904 C 479.07787,313.9064 481.07113,311.64132 483.40031,309.60565 C 485.7295,307.56992 487.71075,305.33565 487.79927,304.66254 C 488.07606,302.55763 491.31464,297.73373 494.09904,295.25706 C 497.24574,292.45813 499.00809,289.5382 500.19869,285.0329 C 501.78869,279.01609 504.75291,275.14178 510.6283,271.4442 C 513.56729,269.5946 516.68657,267.49665 517.54957,266.81702 C 519.73194,265.09828 524.80095,262.41431 525.68114,262.52455 C 526.08254,262.57483 526.86457,262.20575 527.3867,261.7004 C 527.90885,261.19505 530.82388,259.94184 533.85122,258.90841 C 538.36617,257.36719 540.8542,255.81975 547.72507,250.3905 C 552.3321,246.75011 558.103,242.61453 560.54889,241.19167 C 562.99478,239.76881 568.2304,235.96748 572.21656,232.70267 C 576.20271,229.43789 581.17598,226.0008 583.24168,225.10992 C 591.14193,221.70267 596.30461,214.38101 594.77059,208.78976 C 594.03156,206.09602 591.26664,202.47504 589.25364,201.62801 C 588.61945,201.36114 586.98721,200.78926 585.65132,200.38325 C 584.31543,199.97722 582.52007,198.95413 581.64289,198.04984 C 580.76572,197.14559 579.16345,196.00087 578.07372,195.5273 C 576.67017,194.9174 570.83797,194.15623 565.24162,194.80966 C 562.65464,195.11171 561.52597,193.96083 558.17693,193.31215 z M 458.98427,184.69357 C 456.74031,185.78373 454.08705,186.23333 449.89174,185.08904 C 447.04004,184.31121 444.69572,183.18592 443.74878,182.18307 C 442.90654,181.29115 441.41671,179.93246 440.42007,179.14124 C 439.42343,178.35001 437.32036,176.41207 435.75387,174.83306 C 434.18733,173.25405 432.54675,171.6661 432.12335,171.32609 C 430.4448,169.97812 421.00897,166.60273 419.33499,166.73319 C 415.79547,167.00902 401.38533,164.50315 418.22155,162.91726 C 422.32423,162.53081 423.53287,161.95352 429.72827,163.94488 C 431.26822,164.43986 434.38181,166.1247 436.28452,167.87933 C 437.32218,168.83622 438.72319,169.29618 439.99096,170.00982 C 441.80841,171.03287 444.05387,172.07361 446.80009,173.06026 C 450.41382,174.35862 452.92184,174.85361 455.0171,174.80818 C 456.60512,174.77378 460.37629,175.68075 462.59802,175.25127 C 471.69319,173.49311 465.6068,178.13436 464.00457,179.74195 C 461.36924,182.38611 461.08178,183.67457 458.98427,184.69357 z M 555.03515,194.93177 C 556.56485,195.27523 557.48511,195.50215 557.92288,196.23076 C 558.74602,197.60084 558.55945,198.20337 557.36915,199.64784 C 556.66944,200.49694 556.09474,202.23766 555.58525,202.49658 C 553.94916,203.32792 552.08514,204.79367 549.95217,207.20536 C 549.95217,207.20536 547.63655,209.64893 546.14927,211.8892 C 544.66197,214.12944 544.00299,216.16641 544.00299,216.16641 C 543.13245,221.30509 543.14964,221.37946 545.01894,223.13071 C 547.36502,225.32868 554.37857,227.07652 557.97208,226.34021 C 559.33206,226.06155 561.47023,225.19977 562.78251,224.43987 C 564.09476,223.67996 567.06983,222.60128 569.38,222.0308 C 573.52007,221.00842 573.63506,221.01622 575.62643,222.56895 C 576.73764,223.43539 577.72016,224.57346 577.82497,225.10297 C 578.14962,226.74347 569.56269,232.47005 564.88966,233.73844 C 555.13088,236.38724 550.32415,238.19674 544.87598,237.82464 C 542.52672,237.66566 539.973,237.06873 537.40439,236.2281 C 534.83575,235.38747 532.2522,234.30317 529.84314,233.16946 C 526.82583,231.74947 522.19077,226.47722 516.32964,224.81247 C 515.36671,224.53897 510.51277,224.26539 509.48442,226.61712 C 507.54988,231.04125 510.93231,238.08839 518.01031,228.64913 C 518.68873,227.74438 533.93039,243.87804 550.16506,239.40276 C 552.40544,238.78518 555.43467,238.6598 556.82658,238.95515 L 559.37888,239.519 L 553.72124,242.53416 C 550.61599,244.1781 546.87064,245.77749 545.37519,246.12825 C 537.53396,247.96743 534.81875,248.28598 530.896,247.7333 C 526.71412,247.14412 526.60826,247.15029 523.32282,249.83703 C 521.48113,251.34311 520.10945,252.78767 520.31914,253.06249 C 520.5288,253.33733 522.22613,253.25532 524.09341,252.86372 C 528.0353,252.03695 541.90235,251.03351 542.28955,251.54107 C 542.8182,252.234 538.84585,254.32604 532.51106,256.66503 C 528.93937,257.9838 522.17662,261.10254 517.51152,263.6379 C 512.84643,266.17328 507.75799,268.76985 506.23209,269.36746 C 502.71808,270.74371 500.62451,274.18283 498.6727,281.85059 C 496.87204,288.92446 495.10391,292.18327 491.09449,295.4912 C 488.9374,297.2709 487.4323,299.21439 486.35477,301.79564 C 483.35457,308.98256 471.41928,316.19763 461.53328,316.75617 C 459.05621,316.89611 456.09328,317.08815 454.99626,317.15833 C 452.68456,317.30614 445.77795,314.84724 445.17216,313.66922 C 444.94582,313.2291 444.85914,311.84783 445.00248,310.59572 C 445.21147,308.76995 445.76509,308.09154 447.66854,307.20589 C 450.6941,305.79811 452.5163,306.05554 454.52438,308.12561 C 455.82464,309.466 456.38512,309.67214 457.6131,309.18395 C 459.03231,308.61977 459.32887,307.58171 458.59509,306.43782 C 458.49361,306.27961 458.43452,306.13566 458.2933,305.9727 C 458.28195,305.96109 458.2465,305.97695 458.23464,305.96535 C 458.13476,305.85233 457.97862,305.72782 457.85984,305.61319 C 457.50357,305.26932 457.08371,304.88372 456.55953,304.53466 C 453.50331,302.49951 454.20193,301.70938 460.22011,300.29266 C 465.26417,299.1052 470.01481,297.1845 473.7872,294.84963 C 475.22078,293.96233 477.93856,292.74958 479.82677,292.1265 C 485.58715,290.2257 493.93271,281.78117 494.51875,277.24029 C 495.02787,273.29528 491.64858,274.84863 486.57613,280.94597 C 484.15338,283.85822 482.69351,284.83437 478.29409,286.50153 C 472.75859,288.59921 470.8974,288.60972 474.30668,286.49049 C 475.39356,285.81486 476.3482,284.84517 476.40451,284.37247 C 476.46081,283.89979 477.39605,282.57953 478.48533,281.39771 C 480.6774,279.01937 481.39962,276.0855 479.85555,275.89212 C 479.31593,275.82455 477.7057,276.98368 476.27829,278.4353 C 474.8509,279.88693 472.50186,282.01073 471.00662,283.20804 C 469.5114,284.40538 467.50069,286.41305 466.54766,287.65527 C 464.14766,290.78364 458.86497,294.81217 458.4286,293.84169 C 458.23445,293.40992 459.14579,291.47345 460.42526,289.57444 C 462.14525,287.02161 462.85729,285.12476 463.19792,282.29108 C 463.31442,281.32199 463.3791,280.5246 463.3672,279.87047 C 463.36507,279.75413 463.35718,279.60796 463.35153,279.50225 L 463.50199,278.23914 L 463.24003,278.93888 C 463.01481,277.48304 462.34137,277.73897 461.58729,280.31905 C 459.54916,287.29248 458.68462,288.99962 456.12707,291.17269 C 454.66521,292.41479 452.71913,294.45097 451.77827,295.69474 C 450.83742,296.93851 448.79256,298.90379 447.26783,300.07446 C 445.74309,301.24512 443.92347,303.12793 443.20383,304.20489 C 442.48418,305.28187 440.32017,307.77232 438.37411,309.76552 C 435.21924,312.99682 434.53314,313.37448 432.32153,313.09747 C 430.52482,312.87245 428.43649,313.47954 424.79268,315.32885 C 420.11441,317.70316 419.50138,317.83802 415.32809,317.31779 C 411.93008,316.89421 410.22253,317.05271 408.28597,317.96192 C 401.81986,320.99772 392.39522,321.11321 386.58333,318.23493 C 382.4331,316.17956 378.87477,309.98033 379.38056,305.73424 C 379.76001,302.54873 380.93807,301.82558 383.11232,303.39356 C 384.92931,304.70394 385.18163,304.32736 384.52192,301.55563 C 383.78953,298.47853 384.86307,297.63753 387.28648,299.33798 C 389.79345,301.09711 394.08372,301.45459 399.00959,300.37895 C 402.44132,299.62959 403.52164,299.65978 405.00572,300.51951 C 406.51848,301.39582 407.03183,301.40631 408.28207,300.50254 C 410.52144,298.88388 410.96061,293.63155 409.14097,290.29351 C 406.0995,284.71403 405.61117,283.2923 405.32873,279.3163 C 404.9898,274.54527 406.5556,268.81839 408.6889,267.10081 C 409.40068,266.52775 410.89318,265.04759 411.94154,263.78445 C 412.98991,262.52131 415.2579,260.89683 417.01124,260.20731 C 418.76463,259.51781 421.2635,257.7562 422.60037,256.26792 C 425.08595,253.50084 426.52443,252.89645 431.89796,252.18254 C 436.20035,251.61091 444.17405,245.33683 445.29717,241.65174 C 446.53961,237.57534 445.34918,236.96546 442.31726,240.17971 C 438.76867,243.94164 432.87049,247.8802 428.4161,249.42673 C 426.22149,250.18867 422.23151,252.6589 418.64027,255.52773 C 415.30249,258.19411 412.34334,260.35524 412.1153,260.32666 C 411.21473,260.21386 410.28785,256.00692 410.2898,252.16216 C 410.29163,248.58498 410.01624,247.78057 407.88173,245.38979 C 406.55125,243.8996 404.63246,242.38733 403.63597,242.04994 C 402.39412,241.62946 401.40734,240.47417 400.56204,238.36852 C 399.0903,234.70226 397.30551,234.38467 396.60196,237.62833 C 396.09657,239.95837 397.23964,241.58661 402.37054,245.67624 C 405.55487,248.21437 407.35693,252.27501 407.79924,258.07682 C 408.11037,262.15778 407.9501,262.68523 405.60419,267.50805 C 403.47898,271.87705 403.08569,273.43768 402.79657,278.08348 C 402.4948,282.93317 402.6455,283.96718 404.4273,287.38342 C 405.52757,289.49291 406.82301,292.32052 407.31045,293.66589 C 408.58149,297.17408 407.16352,298.16225 401.5382,297.64341 C 399.18527,297.42637 395.98324,297.54341 394.42174,297.91194 C 390.81985,298.76207 388.69838,297.84726 385.17571,294.06793 C 382.43068,291.12289 382.15758,291.1736 381.28413,294.25202 C 380.92081,295.53248 379.88075,296.14459 377.49371,296.58535 C 375.97846,296.86512 375.70789,298.96357 376.40065,304.26221 C 377.516,312.79359 380.33733,317.9251 385.06358,319.99802 C 389.50516,321.9461 401.62908,323.23794 405.28497,322.16442 C 406.83121,321.71037 410.60028,320.98568 413.62923,320.58457 L 419.1319,319.86973 L 422.86942,324.97727 L 426.55544,330.01731 L 431.7487,331.40029 C 435.69133,332.42249 437.92828,333.45772 441.15771,335.87516 C 446.46671,339.84932 452.55731,347.40564 451.74115,348.9824 C 450.92325,350.56256 449.42746,350.18416 445.51354,347.28674 C 444.53703,346.56383 443.57114,345.9943 442.68679,345.52866 C 440.57144,344.41488 438.93407,344.04699 438.82967,344.92349 C 438.79021,345.25474 440.09345,346.23352 441.7236,347.11729 C 445.38117,349.10018 448.13967,353.72814 447.72502,357.20884 C 447.37791,360.12283 446.18937,360.51583 443.08206,358.70286 C 437.37117,355.37077 423.61993,353.10354 415.99365,354.21131 L 411.09189,354.87932 L 409.9362,353.08636 C 409.29686,352.08342 408.12561,349.90213 407.29886,348.23871 C 404.71555,343.04114 403.44044,342.38635 394.14468,341.21923 L 385.93972,340.13054 L 379.91004,335.77367 C 374.65693,331.9292 373.23216,331.22855 368.83443,330.29648 C 359.48971,328.31595 352.78965,325.65364 346.5941,321.58957 C 340.55729,317.62965 338.1316,314.963 334.02205,307.68388 C 331.54259,303.29207 326.49579,289.22579 325.97843,285.24963 C 325.58784,282.24795 323.62731,278.98156 321.01683,277.35547 C 319.24807,276.25371 317.29006,276.05816 313.98223,275.50606 L 313.92357,275.49871 C 312.73609,275.1442 311.50124,274.79595 310.06513,274.405 C 307.34903,273.66559 304.12102,272.49541 302.93346,271.80252 C 299.42063,269.75292 293.10386,262.63022 292.17645,260.70351 C 291.12111,258.51107 290.30822,253.5104 290.93965,251.30813 C 291.68889,248.69492 292.03979,247.12908 294.93139,244.41878 C 297.29247,242.20576 299.5012,240.71376 302.77751,241.03191 C 306.41809,241.38546 308.29777,242.13264 310.65023,243.90191 C 315.13643,247.27594 316.85619,251.85399 315.27464,257.65964 C 314.29232,261.26557 310.74947,264.17966 308.28438,262.9756 C 307.31445,262.50186 308.6051,261.25578 309.87762,259.48653 C 311.85607,256.73573 312.98769,255.74799 310.66948,251.69634 C 308.83344,248.48742 306.56192,248.30558 303.99975,247.98467 C 301.74279,247.702 301.29889,248.30386 299.29637,249.85913 C 295.6773,252.66991 295.66283,255.92733 298.46746,260.31611 C 301.27212,264.70489 309.61146,266.95465 309.61146,266.95465 C 315.64861,267.81895 322.70558,266.53855 323.30223,266.23465 C 324.11775,265.81931 324.73391,263.56499 325.77492,256.47192 C 326.5216,251.38412 327.62763,245.44995 328.2382,243.28949 C 328.84881,241.12902 329.86381,237.43928 330.52459,235.09059 C 331.64392,231.11218 338.14992,219.66091 340.54723,217.42193 C 341.09816,216.90739 341.8279,215.71838 342.17448,214.75662 C 342.52112,213.79486 344.43734,211.00945 346.48209,208.58118 C 357.07605,196.00017 369.28415,188.71204 388.00334,183.86952 C 396.5916,181.64778 402.16845,181.16795 419.42535,180.968 C 423.6045,180.91956 428.87798,180.48134 431.15028,179.9947 C 434.96165,179.17843 435.47388,179.17482 437.64565,180.44196 C 438.94043,181.19742 440.50777,182.48655 441.17901,183.26526 C 442.94984,185.31966 447.88858,187.70727 451.13877,188.11435 C 457.40757,188.89948 461.33745,186.71088 463.61506,184.03207 C 465.92385,181.31654 467.10288,179.59706 467.90746,178.72041 C 469.68032,176.78871 472.49209,173.33227 473.47379,172.53717 C 474.26117,171.89946 475.17753,169.13613 476.44927,167.04952 C 478.3567,163.91989 479.35228,163.05037 481.97706,162.12572 C 484.84294,161.11617 485.49243,161.16631 488.74291,162.30163 C 491.12785,163.13462 492.78676,163.38454 493.65585,163.03905 C 494.37918,162.75149 497.47484,162.78482 500.54618,163.1695 C 505.16675,163.74821 506.83392,163.6326 509.97045,162.51851 C 512.0975,161.76297 514.56268,161.37759 515.61194,161.63792 C 517.23984,162.04184 518.39044,162.27133 519.56429,163.95438 C 520.713,165.60143 522.25476,166.48261 524.90182,169.11199 C 527.34219,171.53605 530.83889,172.06965 531.01165,172.29613 C 531.18444,172.52259 530.76964,173.16978 530.12146,173.77181 C 527.2448,176.44379 524.18023,182.75945 523.58344,187.17642 C 523.07731,190.92216 522.75143,191.78336 521.25319,192.74489 C 518.91242,194.24719 517.0666,193.89578 516.70652,191.93125 C 516.30243,189.72671 510.38808,179.91223 506.58586,180.34324 C 505.46141,180.47071 504.13704,181.92045 503.30125,183.86541 C 502.09479,186.67291 501.5334,189.92587 501.22031,192.4945 C 500.59266,197.64883 499.59349,199.9976 498.58331,201.13784 C 497.07014,202.84576 496.59518,204.42942 497.58117,204.55294 C 497.92151,204.59558 500.54819,203.58878 503.43894,202.35645 C 509.43715,199.79941 515.6647,198.35799 518.87278,198.7344 C 520.73637,198.95306 521.29449,198.57889 522.72186,196.40841 C 524.70723,193.38942 526.87618,192.10786 534.00577,189.64165 C 539.887,187.60725 540.93649,187.55257 541.32685,189.15456 C 541.57051,190.15436 538.97285,193.053 534.45796,196.84055 C 531.40916,199.39826 532.2917,200.8255 535.75191,198.67462 C 536.7778,198.03693 538.40312,196.82977 538.94063,195.69274 C 539.42716,194.66354 540.99886,193.02987 541.66156,192.86009 C 543.41775,192.4101 542.72429,195.69607 541.11795,197.21053 C 540.4319,197.85737 539.05006,199.13316 538.15431,200.29471 C 536.04539,203.0295 536.04615,203.21608 538.30116,203.06014 C 538.9359,203.01624 540.8506,201.30728 542.33045,198.89233 C 543.79443,196.50333 544.82458,193.40806 545.28279,193.3654 C 547.10213,193.19591 546.85587,195.45782 545.48574,198.33928 C 544.93133,199.50524 543.46984,200.72128 543.04117,201.71566 C 542.41044,203.17875 540.47554,204.00392 540.84487,204.80971 C 541.57378,206.39985 545.77472,203.35049 546.86994,200.40018 C 548.16278,196.91751 548.10431,195.52939 551.17857,194.98751 C 552.52945,194.74942 553.83843,194.66307 555.03515,194.93177 z M 461.10115,155.84926 C 463.47813,157.0545 473.0034,162.10666 473.41384,164.04441 C 473.85694,166.13616 472.35953,168.84124 469.91311,170.443 C 466.87614,172.43144 461.1145,173.14998 454.32076,172.39698 C 448.33,171.73298 446.74002,171.294 442.22466,168.9896 C 439.36341,167.52935 436.65367,165.85582 436.10185,165.41465 C 430.34414,160.81135 423.02193,159.76571 416.82797,161.2914 C 411.48762,162.60684 405.85174,164.06772 403.49462,163.7725 C 401.19369,163.48432 399.23755,162.02674 399.38902,160.75545 C 399.66655,158.42567 417.59103,151.37559 421.87443,151.91208 C 422.8625,152.03583 425.05725,151.84729 426.68889,151.47731 C 428.32053,151.1073 432.9661,150.827 437.05885,150.88371 C 444.13231,150.98167 454.12097,152.30999 461.10115,155.84926 z M 516.52736,139.95949 C 521.25977,140.41064 528.02002,141.98391 531.07277,143.79574 C 533.74398,145.38113 537.97303,149.83978 537.84303,150.93134 C 537.81275,151.18552 536.52771,152.59909 535.02249,154.11869 C 532.23319,156.93463 531.50356,158.56155 532.86553,158.73213 C 534.04622,158.88002 538.0582,154.92267 539.68829,152.93276 C 541.53585,150.67734 547.11823,150.61605 552.51426,155.21068 C 555.15935,157.46292 558.00247,161.07694 557.66895,163.91423 C 557.45472,165.73641 554.44752,169.92047 553.45582,169.79627 C 553.11356,169.7534 551.56498,170.63471 550.00885,171.74531 C 548.45271,172.85587 546.45766,174.02968 545.58887,174.36606 C 544.7201,174.70241 543.91175,174.9576 543.79464,174.93492 C 543.67755,174.91227 542.24823,173.35581 540.58191,171.41924 C 538.91561,169.48264 536.41265,168.30661 534.63496,168.01739 C 533.14305,167.77464 530.78519,167.45722 529.54652,167.01068 C 526.29649,165.83904 525.6384,164.36753 524.21823,162.63259 C 522.71711,160.79877 520.78295,159.90788 518.39871,159.10336 C 515.77546,158.21819 513.93758,158.83624 513.1246,158.02995 C 512.02621,156.94058 514.07926,157.86951 515.1528,153.84145 C 515.80564,151.39191 515.5758,149.64314 515.63891,147.41781 C 515.71143,144.86207 513.89006,141.52157 512.3165,141.32449 C 511.82092,141.26242 511.40902,140.94614 511.4496,140.60548 C 511.54141,139.83481 513.68789,139.6888 516.52736,139.95949 z M 533.10139,175.24384 C 536.73968,172.67585 538.22234,176.11018 537.32634,176.22707 C 533.06645,176.78266 532.39311,181.37081 531.88975,183.94737 C 531.12003,187.88711 530.99995,187.05857 529.43493,188.0314 C 526.64064,189.76834 525.6523,189.29979 526.00724,186.32014 C 526.29642,183.89248 532.15829,174.74697 533.10139,175.24384 z M 500.95386,172.1789 C 499.78573,172.00243 498.51958,171.90181 497.72156,172.88815 C 497.0785,173.68292 495.40048,177.161 495.15998,179.11818 C 494.91948,181.07536 494.02025,183.37162 493.02584,185.53916 C 490.79265,190.4069 490.35191,195.77043 491.0312,197.56704 C 491.4334,198.63081 491.72821,198.79317 492.55764,198.24658 C 494.02146,197.28201 498.8653,188.52608 499.04226,187.0404 C 499.12176,186.37291 503.01991,181.10359 503.87391,179.21381 C 505.41077,175.81306 505.39988,175.77076 504.03513,173.86205 C 503.14783,172.62109 502.12198,172.35539 500.95386,172.1789 z M 506.77266,183.14805 C 507.13401,182.97718 509.38584,184.58274 510.07693,185.48861 C 511.2469,187.02213 511.70992,189.53942 510.04244,188.7769 C 508.93085,188.26856 508.19727,191.39775 508.03763,192.73791 C 507.84596,194.34705 507.14812,195.58093 506.05398,196.39633 C 503.48491,198.31091 502.6103,197.81805 502.9854,194.66903 C 503.32056,191.85549 505.58054,183.71166 506.77266,183.14805 z M 561.29538,205.6513 C 559.50579,205.61078 558.15795,207.18405 557.215,212.20503 C 556.34829,216.82004 556.33588,218.17366 557.08777,219.27031 C 557.59842,220.01508 558.54171,220.67332 559.1735,220.75245 C 561.58507,221.05449 562.97121,218.56301 564.54134,211.17397 C 564.64141,210.70304 564.93454,209.87236 565.00581,209.27394 C 565.06757,208.75552 565.09554,208.37355 565.03179,208.05628 C 565.03249,208.0316 565.03885,208.01998 565.03896,207.99613 C 565.02603,207.94105 565.02016,207.85889 565.0018,207.80834 C 564.93038,206.97671 565.04229,206.6022 563.50006,206.00017 C 562.60288,205.64993 561.8919,205.66482 561.29538,205.6513 z M 490.27307,204.43121 C 489.80817,204.46801 489.10989,204.87079 488.10673,205.62497 C 486.44898,206.87125 485.38005,209.97842 486.26008,211.13191 C 487.67551,212.98718 489.60239,211.33704 490.57441,207.39911 C 491.08744,205.3207 491.0479,204.3699 490.27307,204.43121 z M 501.20058,222.12637 C 501.93694,221.70163 505.57788,219.26031 502.1675,218.64905 C 494.2989,217.6909 494.35414,231.64249 495.44567,233.53898 C 496.83744,235.95706 497.89097,227.27477 498.12062,225.86878 C 498.3864,224.24144 499.31822,223.21211 501.20058,222.12637 z M 247.34455,239.68962 C 249.03744,239.90165 258.46857,247.27951 259.25502,250.75339 C 261.16655,259.19704 270.68936,269.86589 281.06033,271.16483 C 284.04586,271.53875 288.53514,272.02574 290.03985,271.59167 C 293.36586,270.63221 295.1036,270.53482 295.88799,270.74615 C 297.15992,271.0888 297.53998,273.92831 296.71075,274.56375 C 295.56472,275.442 290.44226,277.53751 284.77087,277.34147 C 276.34905,277.0504 268.66991,273.70422 255.51449,261.60929 C 253.60032,259.84938 250.71098,254.85415 250.36852,254.17644 C 248.15869,249.80325 246.04558,245.04993 245.8633,242.12903 C 245.71053,239.68091 245.81353,239.49789 247.34455,239.68962 z M 304.16635,250.95744 C 305.75355,251.25235 307.05073,252.46185 307.56939,254.37486 C 308.05391,256.16205 307.91963,256.74729 306.83188,258.0673 C 304.85004,260.4722 303.94048,260.32181 301.92989,258.89868 C 298.40071,256.4007 298.42257,253.32614 301.8572,251.73291 C 302.95943,251.22163 303.21403,250.7805 304.16635,250.95744 z M 441.75164,311.89782 C 442.66534,311.94509 443.31394,312.82803 444.58109,314.63295 L 446.86246,317.97094 L 455.42522,318.55503 C 461.96861,319.03157 465.25564,318.90264 469.59945,318.01061 L 475.2696,316.88942 L 478.92028,319.72741 C 482.43192,322.50487 484.67402,326.1008 483.52869,327.01956 C 482.81183,327.59461 479.26474,327.12758 476.08628,326.02638 C 473.09226,324.98906 472.88285,325.56226 474.84233,329.47223 C 475.61974,331.02356 476.11188,332.7204 475.93757,333.27211 C 475.45088,334.81261 474.52086,334.63632 471.04611,332.35423 C 466.99216,329.69179 461.34435,328.9015 452.42863,329.71723 C 445.99307,330.30604 445.97612,330.3039 443.51259,328.60052 C 440.57475,326.56914 436.16476,325.92709 432.05142,326.85984 C 429.44247,327.45144 428.85901,327.35549 427.30012,326.26475 C 423.91801,323.89832 424.26284,319.62855 428.07171,316.28894 C 430.54073,314.12413 430.77548,314.06338 432.31257,315.17189 C 433.8281,316.26482 434.14893,316.15854 437.12568,314.2486 C 439.63433,312.63899 440.83792,311.85054 441.75164,311.89782 z "
       id="path5034"
       sodipodi:nodetypes="csszsscssssssssssscsscsssszzsccccsscsscsscccssscsssssccczsssssssssssssssssssssssssssssssssssssssssssssscccssscccsssccsssssssssccccccsssssssssssssssssssszcssssssssssssssscsssczcsssssssssssssscccssssssssssssssssssssssssssssssssssssssssscccssssssssssssssssssssssssssssssssssssssssssssssssscccccsssssssscccscccsssssccssssssssssssszcssssssssssssszssssssssssssssssssssssssssssssssssssssssscsssssssssssscsssssssssssssssssssssccssssccssssssssccsssssccsssssssssscssscccssscsssssssssccssssccccccccssssssssssssc" />
  </g>
</svg>
