<?xml version="1.0" encoding="UTF-8" standalone="no"?>
<!-- Created with Inkscape (http://www.inkscape.org/) -->
<svg
   xmlns:dc="http://purl.org/dc/elements/1.1/"
   xmlns:cc="http://web.resource.org/cc/"
   xmlns:rdf="http://www.w3.org/1999/02/22-rdf-syntax-ns#"
   xmlns:svg="http://www.w3.org/2000/svg"
   xmlns="http://www.w3.org/2000/svg"
   xmlns:sodipodi="http://sodipodi.sourceforge.net/DTD/sodipodi-0.dtd"
   xmlns:inkscape="http://www.inkscape.org/namespaces/inkscape"
   width="454.90988"
   height="354.33072"
   id="svg1876"
   sodipodi:version="0.32"
   inkscape:version="0.44.1"
   version="1.0"
   sodipodi:docbase="/home/moni"
   sodipodi:docname="pig1.svg">
  <defs
     id="defs1878" />
  <sodipodi:namedview
     id="base"
     pagecolor="#ffffff"
     bordercolor="#666666"
     borderopacity="1.0"
     gridtolerance="10000"
     guidetolerance="10"
     objecttolerance="10"
     inkscape:pageopacity="0.0"
     inkscape:pageshadow="2"
     inkscape:zoom="1.4844888"
     inkscape:cx="227.45493"
     inkscape:cy="177.16535"
     inkscape:document-units="px"
     inkscape:current-layer="layer1"
     width="209.99874mm"
     height="297mm"
     units="mm"
     inkscape:window-width="1016"
     inkscape:window-height="714"
     inkscape:window-x="0"
     inkscape:window-y="0" />
  <metadata
     id="metadata1881">
    <rdf:RDF>
      <cc:Work
         rdf:about="">
        <dc:format>image/svg+xml</dc:format>
        <dc:type
           rdf:resource="http://purl.org/dc/dcmitype/StillImage" />
      </cc:Work>
    </rdf:RDF>
  </metadata>
  <g
     inkscape:label="Layer 1"
     inkscape:groupmode="layer"
     id="layer1"
     transform="translate(-98.0621,-56.70425)">
    <path
       id="path2159"
       d="M 390.51551,408.68793 C 389.98384,407.46735 389.17911,406.19751 388.7273,405.86608 C 388.27534,405.53464 385.98385,400.98682 383.63487,395.75979 C 381.28589,390.53277 377.91344,383.99975 376.14047,381.24201 C 374.36752,378.48427 369.25923,365.61641 364.7889,352.64672 L 356.66086,329.06554 L 342.24482,329.85072 C 332.39535,330.38717 325.5845,330.06638 320.74467,328.83808 C 316.84848,327.8493 313.16611,327.38714 312.56144,327.81111 C 311.95676,328.23507 308.79092,333.33035 305.52628,339.13395 C 301.76275,345.82435 295.81361,353.53704 289.27002,360.2092 C 283.59374,365.99697 277.74972,373.25745 276.28324,376.34356 C 274.81678,379.42968 271.92281,382.93225 269.85221,384.12703 C 266.28153,386.18728 256.86436,393.68132 255.57548,395.48811 C 254.41423,397.11602 244.36787,402.49151 242.25943,402.6131 C 241.06388,402.68206 240.37689,402.00779 240.69547,401.07831 C 242.82886,394.8546 243.05483,395.10159 236.19725,396.1624 C 231.22721,396.9312 229.66845,396.74749 229.59254,395.38401 C 229.538,394.40245 234.30703,388.04857 240.19046,381.26429 C 251.29193,368.46318 265.23075,346.27373 272.01857,330.59656 C 275.87327,321.69399 278.51048,310.91943 276.85967,310.81774 C 276.39816,310.78927 272.21844,310.72453 267.57149,310.67381 C 258.10718,310.57051 238.53573,307.95061 237.46136,306.64322 C 235.86952,304.70578 227.9659,302.03763 224.42406,302.24188 C 218.6483,302.57498 195.57022,297.72239 188.0529,294.59424 C 184.39273,293.07111 179.29408,290.10537 176.72238,288.00367 C 174.15084,285.90197 169.65556,283.4901 166.73293,282.64396 C 157.46736,279.96146 144.21624,272.82821 137.69151,267.01071 C 132.73192,262.5886 130.36582,259.00843 126.61753,250.25435 C 123.99591,244.13136 121.71651,236.79278 121.55235,233.94636 C 121.29313,229.45188 120.69363,228.51206 116.99448,226.80219 C 114.65185,225.71933 109.78606,222.43707 106.18161,219.50836 C 99.793298,214.31762 99.617217,213.9941 99.194883,206.67129 C 98.322007,191.5357 103.20663,171.04334 110.59402,158.84929 C 114.66452,152.1303 115.0669,149.94897 112.20584,150.11396 C 111.1567,150.17446 107.58701,149.09376 104.27314,147.71243 C 99.796507,145.84637 98.204928,144.45637 98.080807,142.30418 C 97.846521,138.24203 99.848843,132.25683 102.08307,130.34075 C 106.51296,126.54169 113.93131,113.16414 120.92691,96.359693 C 134.60376,63.505753 145.19821,54.875869 167.23663,58.637453 C 172.97139,59.616283 180.92898,64.688683 193.78864,75.562413 L 199.44151,80.342363 L 208.01461,74.463993 C 220.72629,65.747753 227.85277,63.603253 243.56354,63.766323 C 282.24372,64.167893 282.34912,64.177623 291.24551,68.177983 L 299.67848,71.969883 L 313.2686,64.407263 C 326.57904,57.000249 327.06165,56.843169 336.72104,56.774427 L 346.58324,56.704255 L 356.46482,65.855853 C 361.89964,70.889233 369.55866,77.348063 373.48472,80.208823 C 380.89721,85.609903 385.51075,92.014313 387.60337,99.807943 L 388.82398,104.3544 L 405.68121,103.83616 C 426.01654,103.21097 438.05089,105.37145 456.21665,112.90854 C 466.84902,117.32001 470.62451,119.75923 479.95454,128.24481 C 492.626,139.76941 503.88949,154.01204 508.37521,164.18239 C 510.48639,168.96912 512.1658,176.70458 513.72285,188.81454 C 515.91327,205.84955 516.13544,206.6025 520.0596,210.28815 C 522.29621,212.38893 525.50904,216.51426 527.19917,219.45553 C 529.73848,223.87464 530.91448,224.76625 533.97183,224.58994 C 544.44863,223.98572 553.10623,231.32756 552.97042,240.70113 C 552.89493,245.9116 552.63566,246.28829 548.7056,246.89753 C 544.5509,247.54163 544.51881,247.50528 544.18849,241.77773 C 543.86565,236.17984 543.71638,235.9913 539.1415,235.40263 C 536.54865,235.06897 534.31033,234.98671 534.16738,235.21982 C 534.02454,235.45289 533.38884,238.85282 532.75485,242.77521 C 530.95753,253.89378 526.37367,261.02541 519.18434,263.88864 C 512.13648,266.69548 508.55938,266.11756 505.94129,261.74915 L 504.04198,258.57994 L 502.24762,261.72644 C 497.92511,269.30617 494.94868,288.48873 495.78835,303.35469 C 496.18559,310.38665 495.50265,313.57359 491.27523,324.41492 C 486.40766,336.89818 484.82093,344.87931 484.05828,360.71662 C 483.72777,367.57919 483.11762,369.12649 479.07437,373.35403 C 476.54024,376.00357 473.6363,380.05845 472.62111,382.36487 C 470.30287,387.63153 463.79055,395.03708 461.35378,395.17762 C 460.26347,395.24049 459.4369,393.99268 459.32898,392.12112 C 459.06615,387.56405 456.72943,386.93513 452.65937,390.32594 C 448.34476,393.92042 445.15553,394.30388 445.01756,391.24477 C 444.84805,387.48556 449.20572,377.51316 454.44944,369.65994 C 460.24776,360.97616 463.22742,347.5503 462.44177,333.64821 C 461.86958,323.52649 459.58433,318.13822 453.81472,313.30747 L 449.73068,309.88796 L 446.92108,318.28376 C 445.37589,322.90145 443.85261,329.60656 443.53606,333.18402 C 442.68106,342.84923 441.55398,345.40766 436.72328,348.64889 C 434.31395,350.26551 431.17977,353.97073 429.75823,356.88277 C 427.15122,362.22372 421.00588,367.60458 417.26698,367.82022 C 416.15287,367.88447 414.80425,366.79225 414.27005,365.39304 C 413.1082,362.35008 411.73575,362.2437 409.67852,365.03722 C 408.78343,366.25267 407.12538,366.84113 405.65402,366.46558 C 403.50601,365.91721 403.29983,366.29967 404.19734,369.16758 C 405.60252,373.6569 407.42146,400.41447 406.40072,401.57979 C 405.09687,403.06829 400.29428,400.24266 399.18368,397.33357 C 397.63303,393.27234 395.95599,396.27962 395.49373,403.95039 C 395.07858,410.83867 392.51509,413.27822 390.51551,408.68793 z M 390.18477,386.99439 C 389.99546,383.71186 394.28397,383.16033 396.81326,386.14192 C 398.13387,387.6987 399.43897,388.67572 399.7136,388.31308 C 399.98809,387.95043 398.34113,378.69416 396.05359,367.74361 C 391.03049,343.69856 387.46929,312.62959 389.30706,308.88637 C 390.41245,306.63484 390.72437,306.99794 391.78004,311.76518 C 392.44437,314.76561 393.35012,317.19268 393.79267,317.15866 C 395.91641,316.99548 408.38008,312.32429 417.47165,308.28423 C 437.03598,299.5903 443.39621,295.90167 443.85429,292.98338 C 444.09361,291.45909 444.6586,286.97314 445.10985,283.01462 C 447.23351,264.38479 451.7464,263.28436 451.7396,281.39801 C 451.73746,286.85254 456.60482,298.27736 465.19475,312.9811 C 471.37194,323.55478 471.39996,323.65305 472.03108,337.00228 C 472.76137,352.44494 470.49633,360.42008 462.58252,370.27216 C 457.84597,376.16859 457.67169,378.44227 462.16714,375.69031 C 464.50007,374.26222 464.8047,374.44486 464.97359,377.37315 C 465.24278,382.04089 466.8784,381.34983 469.81873,375.32607 C 471.21749,372.46058 473.21374,369.73132 474.25482,369.26107 C 475.6804,368.61711 476.02097,366.20855 475.63424,359.50286 C 475.06744,349.6748 477.57874,334.71194 481.51489,324.46503 C 483.52612,319.22922 483.97664,315.0627 483.63717,304.84266 C 483.40008,297.70633 483.94924,288.3147 484.85755,283.97231 C 486.6974,275.17739 492.86254,258.79388 498.71913,247.13598 C 500.96098,242.67354 503.86914,233.01107 505.6873,223.98415 C 508.51241,209.95749 508.66843,207.2074 507.33635,194.9261 C 504.64717,170.13193 497.81823,156.69048 479.52874,140.19211 C 463.23417,125.49329 459.77238,123.31038 445.46041,118.71021 C 430.33883,113.84976 414.96453,111.85348 399.51511,112.74447 C 389.06074,113.34738 387.2241,113.77842 386.66317,115.76066 C 383.01884,128.63951 374.05877,145.08204 362.72936,159.68163 C 356.64398,167.52346 352.74639,171.06469 345.05442,175.74021 C 335.86985,181.32304 334.61237,181.73502 326.9002,181.68854 C 316.99023,181.62879 312.59511,179.22554 307.82156,171.25636 C 304.8392,166.27736 304.45932,164.33957 304.30098,153.29364 C 304.13067,141.41194 304.40694,140.16793 311.14188,122.48381 C 319.2538,101.18429 321.7306,90.387353 320.15342,83.201393 C 319.20069,78.860593 319.36559,78.221733 321.37353,78.474693 C 322.6504,78.635573 325.21287,81.430973 327.06795,84.686683 L 330.44048,90.606193 L 322.38907,110.45192 C 311.94374,136.1981 310.97703,139.79824 311.60148,150.62595 C 312.47635,165.79593 319.21799,173.27523 331.38438,172.57355 C 344.55261,171.81413 361.31026,153.07007 373.87481,125.04633 C 382.53387,105.73348 380.19182,92.736183 366.58155,84.572033 C 363.06152,82.460483 356.1951,77.495913 351.32291,73.539673 C 340.91768,65.090573 337.71657,63.835173 330.44914,65.353313 C 324.69185,66.555983 309.09324,77.304913 303.93851,83.621743 C 300.19297,88.211673 295.0464,88.795783 294.80441,84.658373 C 294.64202,81.880803 289.9617,78.548823 280.01113,74.126733 C 275.61276,72.172133 237.25321,69.919353 231.6823,71.288493 C 221.94407,73.681833 207.77762,82.930483 201.47347,91.010633 C 199.45027,93.603643 194.33037,98.130663 190.09583,101.07063 L 182.3965,106.41605 L 190.50948,106.33515 C 198.10144,106.25947 198.77023,106.50384 200.92347,110.14086 C 204.7056,116.52898 202.53256,133.53221 197.06575,140.32599 C 195.21054,142.63159 195.35291,143.04811 199.26041,146.74697 C 203.65952,150.91113 205.94225,155.91047 204.05034,157.23707 C 203.43281,157.67007 200.66929,156.06929 197.90915,153.67978 C 193.63567,149.98023 183.2197,146.01849 178.48449,146.29158 C 177.83013,146.32933 180.45407,149.44263 184.31539,153.21006 C 190.70048,159.44001 192.72838,162.37009 190.73451,162.48508 C 190.3282,162.50851 187.13871,160.41805 183.64669,157.8396 C 175.89864,152.11849 169.84743,149.38968 165.46854,149.64223 C 162.39759,149.81934 161.00491,151.73388 163.33,152.58223 C 164.93601,153.16819 173.43673,165.04097 173.54066,166.84322 C 173.5919,167.73171 174.04073,169.3605 174.53793,170.46282 C 176.40834,174.60906 172.9764,172.30152 165.78752,164.57904 C 152.01518,149.78469 135.07418,146.28466 123.31937,155.80511 C 116.91896,160.98897 110.32224,172.59348 109.25479,180.54662 C 108.84655,183.58826 108.76613,190.91511 109.07612,196.82846 C 109.58062,206.45492 109.97956,207.88316 112.88828,210.47662 C 119.18226,216.0885 134.28113,217.45376 153.82553,214.17825 C 169.36153,211.57457 176.16692,208.67191 180.12526,202.96087 C 183.49752,198.0953 185.14632,198.53565 183.46929,203.85399 C 182.83146,205.87658 182.47817,207.63407 182.68388,207.75943 C 183.85369,208.47202 215.4951,203.63227 223.52917,201.5119 C 236.78713,198.01282 247.17174,190.52438 253.13183,180.16521 C 254.84085,177.19471 254.62482,176.73968 248.57884,170.57824 C 242.45651,164.33902 240.62614,160.90775 243.33691,160.75141 C 244.049,160.71035 244.66111,161.18802 244.69714,161.81289 C 244.77792,163.2137 253.86297,166.49127 268.27111,170.31762 C 281.67057,173.87605 290.81676,179.16702 294.53476,185.51098 C 297.80208,191.08558 296.33826,195.07547 293.01831,189.64461 C 290.6294,185.73679 283.78601,182.52085 273.46823,180.45746 C 260.8193,177.92788 260.36871,178.13565 259.7932,186.76411 C 259.09175,197.28137 254.92225,214.71066 250.88072,224.02053 C 246.11703,234.99375 240.87712,241.21061 232.77852,245.49798 C 223.42554,250.44947 215.1256,250.09484 201.4425,244.15898 C 192.23453,240.16457 190.90977,239.09419 185.71022,231.44834 C 182.58753,226.85646 178.68273,221.71776 177.03275,220.02901 L 174.03274,216.95855 L 166.26219,219.87945 C 160.30294,222.11946 137.49596,226.64573 129.92543,227.09082 C 128.31697,227.18538 129.25504,233.91437 131.70023,239.82088 C 139.76877,259.31138 150.97689,269.24194 167.90828,271.90178 C 173.36191,272.75853 176.67747,274.31114 181.51854,278.27522 C 192.38958,287.17673 212.8801,293.47746 226.22594,292.02246 C 235.79949,290.97874 247.97586,287.95935 251.84022,285.67086 C 254.25826,284.23891 257.36761,282.40534 258.74989,281.59623 C 260.13215,280.78714 263.73442,278.60777 266.75475,276.75323 C 269.77521,274.89865 272.57972,273.67853 272.98726,274.04185 C 274.38368,275.2869 266.77828,288.09928 264.56714,288.2268 C 264.15168,288.25076 261.32273,290.16889 258.28056,292.48934 C 255.23852,294.80978 251.47452,296.78185 249.91631,296.87173 C 248.22567,296.96923 247.3381,297.67551 247.71569,298.62304 C 249.07511,302.03522 274.13844,302.14083 292.86805,298.81331 C 309.26707,295.89986 315.3352,295.35894 311.60764,297.14286 C 310.2171,297.80833 308.04075,299.65174 306.77118,301.23937 C 305.50174,302.82697 303.13125,304.20273 301.50339,304.2966 C 299.87554,304.39048 298.23811,305.03237 297.86472,305.723 C 297.09187,307.15244 304.42183,307.9058 316.76108,307.66517 L 325.19527,307.50069 L 317.25394,310.54844 C 312.88625,312.22471 309.33291,313.96175 309.35762,314.40852 C 309.38233,314.8553 312.53789,316.37004 316.36983,317.7746 C 321.93456,319.81431 326.52177,320.27093 339.15729,320.04309 C 354.806,319.76086 354.9678,319.72827 354.09587,317.03605 C 352.98318,313.60017 353.91372,313.56039 358.9113,316.83023 C 362.49305,319.17376 362.94893,320.17927 363.3161,326.54586 C 363.59926,331.45571 365.84129,339.04956 370.58077,351.15161 C 374.35109,360.77891 377.49197,369.6282 377.56051,370.81671 C 377.62905,372.0052 379.22516,374.60861 381.10757,376.60201 C 382.98988,378.59542 385.28908,382.51364 386.21687,385.30922 C 387.76204,389.96458 390.42121,391.09397 390.18477,386.99439 z M 208.5934,264.64967 C 198.95272,262.26106 189.24808,256.17061 194.59178,255.86243 C 195.48423,255.81097 200.16472,256.65692 204.99294,257.74234 C 209.82113,258.82773 218.35302,259.82748 223.95282,259.96399 C 229.55249,260.10047 235.60027,260.43657 237.39213,260.7109 C 240.48266,261.184 240.52472,261.28967 238.2106,262.76684 C 234.28715,265.27134 215.83673,266.44428 208.5934,264.64967 z M 318.27054,252.93482 C 321.46029,250.50861 333.47846,234.15011 336.2882,228.41003 C 340.2974,220.21995 345.17609,205.35261 346.6885,196.7159 C 348.29983,187.51467 351.37738,187.10711 351.89178,196.02684 C 352.61586,208.5819 348.50783,226.61769 342.72556,236.26938 C 339.52858,241.60606 323.17941,253.67061 318.86687,253.87541 C 317.61207,253.93499 317.39843,253.59812 318.27054,252.93482 z M 157.0609,182.97082 C 156.61064,182.56938 156.11336,180.00587 155.95582,177.27412 C 155.75101,173.72299 155.11587,172.33925 153.72729,172.41932 C 152.65914,172.48091 151.81883,173.11437 151.85995,173.82702 C 151.90104,174.53963 150.76941,175.18989 149.34522,175.27203 C 145.84933,175.47365 145.43812,168.95604 148.73534,165.60462 C 154.15175,160.09935 160.48198,165.65761 161.10531,176.46589 C 161.40726,181.70147 159.34939,185.01127 157.0609,182.97082 z M 116.86941,182.7783 C 115.52544,181.58 115.38424,175.29327 116.61376,171.39436 C 118.55458,165.23942 125.50881,167.40194 125.90571,174.28383 C 126.06823,177.10205 125.51003,177.94663 123.40429,178.06808 C 121.78252,178.1616 120.48168,179.28104 120.16598,180.85482 C 119.62493,183.55132 118.48344,184.21738 116.86941,182.7783 z M 279.19031,140.48307 C 270.27757,135.28706 258.91883,133.3787 239.18229,133.76137 L 220.36739,134.12616 L 225.3844,131.02036 C 229.0985,128.72116 231.7058,125.36347 235.42384,118.0914 C 243.19643,102.88944 246.4058,99.474543 253.29385,99.077313 C 259.14328,98.739973 270.10352,101.91001 271.88507,104.45449 C 272.42726,105.2287 272.24988,106.70522 271.49118,107.73565 C 270.51224,109.06485 270.57746,111.53592 271.71529,116.24155 C 272.59752,119.88939 273.10901,123.9221 272.85201,125.20316 C 272.52923,126.81191 273.87064,128.33705 277.18882,130.13387 C 282.65099,133.09161 286.13346,136.98891 286.32795,140.36135 C 286.50082,143.35872 284.19055,143.39811 279.19031,140.48307 z M 266.44267,124.91372 C 266.98035,123.22663 266.32892,123.06069 262.70159,123.96064 C 259.0376,124.86967 257.70656,124.5128 254.67311,121.80817 C 251.69183,119.15004 251.07172,117.63282 251.23064,113.38547 C 251.38447,109.27518 251.01994,108.30628 249.46616,108.69555 C 247.00459,109.31223 239.77034,121.43345 239.95482,124.63221 C 240.0743,126.70393 240.89283,126.88424 246.20462,126.00913 C 249.56638,125.45531 254.97039,125.39962 258.21349,125.88538 C 261.45661,126.37116 264.48843,126.81089 264.95077,126.86256 C 265.41319,126.91422 266.08449,126.03725 266.44267,124.91372 z M 264.11042,115.51266 C 264.07436,114.88726 263.20042,113.75276 262.16821,112.99148 C 260.72831,111.92947 260.15133,112.04739 259.68888,113.49818 C 259.35747,114.53816 259.45457,115.71748 259.90484,116.11891 C 261.15515,117.23367 264.1845,116.79696 264.11042,115.51266 z M 262.29938,88.756473 C 261.89293,88.394073 257.51097,87.588593 252.56178,86.966523 C 242.50572,85.702613 240.51484,83.180353 247.7381,80.855863 C 255.86354,78.241093 266.06045,81.751213 266.37887,87.272693 C 266.48684,89.144703 263.82192,90.113963 262.29938,88.756473 z M 257.47074,385.62418 C 259.67354,383.07072 263.07573,380.56419 265.03136,380.05411 C 267.36774,379.44472 269.46663,377.41643 271.15288,374.13841 C 275.53094,365.62772 292.16374,342.26833 299.96381,333.676 C 304.05196,329.17265 307.37491,325.11 307.34826,324.64791 C 307.32161,324.18583 304.79533,322.26573 301.73434,320.38099 C 285.64251,310.47293 285.20643,310.47534 283.56731,320.4804 C 281.7207,331.75106 271.01165,351.08222 253.31103,375.09663 C 244.61335,386.89689 243.37386,389.83042 248.38061,386.76545 C 251.85859,384.63636 252.21697,384.74825 251.60996,387.77387 C 250.83295,391.6471 252.94249,390.87331 257.47074,385.62418 z M 409.86803,348.34618 C 415.1894,339.56234 416.99583,333.82072 416.59962,326.95054 C 416.32204,322.13749 415.83628,321.10282 413.90651,321.21411 C 410.93136,321.38569 398.0365,325.95249 396.79191,327.2753 C 395.91053,328.21225 400.8487,358.09427 402.55832,362.16848 C 403.07956,363.41083 403.82007,362.44331 404.68925,359.38419 C 405.42179,356.80567 407.75224,351.83856 409.86803,348.34618 z M 431.10398,344.02751 C 432.18825,343.33541 433.9552,338.64353 435.03058,333.60111 C 436.10595,328.55869 438.00922,320.91951 439.26014,316.62514 C 440.51102,312.33077 441.47097,307.71701 441.39343,306.37232 C 441.26389,304.1262 440.76887,304.24189 435.30509,307.7952 C 426.13856,313.75645 425.35487,314.8852 424.82059,322.89497 C 424.51835,327.42754 422.5712,334.34907 419.78478,340.79553 C 415.54294,350.60967 414.91839,354.86949 418.27376,351.10051 C 421.09989,347.9261 423.04793,349.05278 422.4979,353.54357 C 421.99092,357.68214 422.07455,357.62738 425.5547,351.54222 C 427.5225,348.10124 430.01973,344.71963 431.10398,344.02751 z M 519.44267,255.32581 C 521.75363,253.04641 523.89714,249.92178 524.20596,248.38214 C 524.7248,245.79618 524.51168,245.85817 521.40994,249.19539 C 517.99142,252.8736 513.24388,254.15999 511.62439,251.84697 C 509.78208,249.21579 512.00811,242.76257 515.58727,240.3583 C 520.23255,237.23797 521.39676,234.07999 517.61102,234.86889 C 513.11841,235.80511 507.40958,244.97502 507.74105,250.72261 C 508.03896,255.88822 510.54756,259.74078 513.50225,259.57038 C 514.4584,259.51523 517.13155,257.60519 519.44267,255.32581 z M 519.27529,242.90707 C 518.81625,242.4978 517.82128,243.565 517.06432,245.27864 C 515.74857,248.25722 515.78528,248.28996 517.89886,246.0228 C 519.11488,244.71844 519.73431,243.31637 519.27529,242.90707 z M 538.1384,230.75825 C 541.22763,230.49826 541.3107,230.36731 538.93402,229.50374 C 534.4653,227.88001 530.43209,228.49284 530.56374,230.77555 C 530.64253,232.14189 531.37229,232.54673 532.68646,231.95315 C 533.78778,231.45563 536.24115,230.91791 538.1384,230.75825 z M 514.89815,229.4365 C 514.85706,228.72385 514.2616,228.53476 513.57489,229.01624 C 512.8882,229.49774 512.35999,230.47473 512.40108,231.18738 C 512.44217,231.9 513.03763,232.08911 513.72435,231.60763 C 514.41104,231.12611 514.93925,230.14911 514.89815,229.4365 z M 520.90011,222.22036 C 519.17238,219.0329 516.94896,216.47167 515.95913,216.52877 C 513.32943,216.68042 513.96716,220.2377 516.86496,221.5811 C 518.2325,222.21505 520.23412,224.5609 521.31289,226.79407 C 522.39178,229.02724 523.44706,230.21569 523.65807,229.43506 C 523.86897,228.65442 522.62796,225.4078 520.90011,222.22036 z M 225.40257,237.0388 C 228.69862,236.05299 232.3477,234.02274 233.51175,232.52712 C 236.55367,228.61888 235.81916,222.76424 231.84216,219.21822 C 228.36337,216.11659 225.80839,216.34589 221.89295,220.11119 C 220.19719,221.7419 219.15353,221.82268 215.42666,220.61151 C 212.98244,219.81715 208.86682,219.46728 206.28095,219.83401 C 202.06745,220.43156 201.52033,220.96113 201.0101,224.93517 C 200.161,231.54757 201.85697,235.31067 206.60273,237.34472 C 211.70585,239.53193 217.37532,239.43967 225.40257,237.0388 z M 196.70541,221.39046 C 197.91855,218.75454 198.57213,216.29558 198.15775,215.92616 C 197.74336,215.55674 194.39099,215.60731 190.70808,216.0386 L 184.01185,216.82269 L 188.36262,222.14626 C 190.75554,225.07424 193.11535,227.18035 193.60664,226.82648 C 194.09791,226.47259 195.4923,224.02641 196.70541,221.39046 z M 245.62579,216.8443 C 247.60752,210.86528 248.83022,200.73452 247.56125,200.8077 C 246.12643,200.89046 221.14748,210.23492 218.34813,211.73612 C 216.37413,212.79478 216.66043,212.8799 219.66983,212.12902 C 221.78282,211.60179 224.80802,210.76205 226.39237,210.26291 C 231.17706,208.75553 236.87574,211.62246 239.7196,216.96772 C 241.14624,219.64926 242.68821,221.83672 243.14592,221.82877 C 243.60374,221.82081 244.71966,219.57781 245.62579,216.8443 z M 158.72497,145.13624 C 161.50997,142.95384 163.02663,117.28312 160.36158,117.43683 C 159.68365,117.47591 157.49654,120.20258 155.50128,123.4961 C 153.50599,126.7896 149.36621,131.515 146.30179,133.99699 C 143.23723,136.47901 140.78025,138.8464 140.8418,139.25789 C 140.97826,140.17113 154.29791,146.2157 156.11156,146.18743 C 156.82536,146.17631 158.0015,145.70326 158.72497,145.13624 z M 124.43372,137.59931 C 129.6562,135.29292 133.56799,132.1107 139.48384,125.35637 C 150.41736,112.87291 162.84066,91.664443 165.87442,80.303273 C 166.58818,77.630753 167.69841,75.413783 168.34165,75.376693 C 171.15584,75.214373 171.54673,82.530343 169.23629,92.119243 C 167.91185,97.616313 166.65404,103.87894 166.4411,106.03622 L 166.05416,109.95854 L 170.17978,105.61186 C 172.44876,103.22122 178.11421,98.892063 182.76957,95.991513 C 188.41635,92.473333 191.18872,89.934743 191.09822,88.365433 C 190.90858,85.077273 179.25629,76.141713 169.88496,72.098113 C 160.92431,68.231683 149.60407,67.529283 144.64465,70.531973 C 139.43706,73.684963 132.89845,85.008753 128.57657,98.358933 C 123.44419,114.21328 121.15013,118.84015 114.58624,126.57673 C 108.17729,134.13065 106.09815,139.62382 109.39507,140.29224 C 114.08876,141.24392 117.6084,140.61367 124.43372,137.59931 z M 172.59408,134.6063 C 173.21726,133.67663 174.30111,130.36028 175.00249,127.23662 C 175.70386,124.11298 178.17814,119.19148 180.50084,116.29994 C 184.6555,111.12786 184.67612,111.03041 181.77726,110.29039 C 179.49386,109.70749 178.23103,110.38663 176.16719,113.30736 C 173.81035,116.64269 168.92118,131.79279 169.11534,135.15924 C 169.21817,136.94241 171.24388,136.62045 172.59408,134.6063 z M 190.40714,132.59484 C 190.80892,131.85162 190.20328,130.94519 189.06131,130.58056 C 187.88892,130.20625 186.48999,127.66321 185.84841,124.73973 L 184.71193,119.56188 L 182.62522,124.09251 C 179.80811,130.20935 179.98995,131.17091 184.22967,132.57104 C 189.07774,134.17204 189.55342,134.17387 190.40714,132.59484 z M 193.64605,117.76751 C 193.24069,116.91074 193.03167,117.95767 193.18135,120.09403 C 193.33107,122.2304 193.66263,122.9314 193.91812,121.65181 C 194.17377,120.37221 194.05125,118.62428 193.64605,117.76751 z "
       style="opacity:0.8;fill:black;fill-opacity:1;stroke:none" />
  </g>
</svg>
